<svg width="60" height="88" viewBox="0 0 60 88" fill="none" xmlns="http://www.w3.org/2000/svg">
<path d="M12.0935 41.0938L10.3638 43.4165L27.3708 56.0771L29.1006 53.7544L12.0935 41.0938Z" fill="#808080"/>
<path d="M36.8942 10.8458C37.2079 10.848 37.5126 10.9513 37.763 11.1402L50.5587 20.552C50.7149 20.6666 50.8469 20.8109 50.9472 20.9765C51.0475 21.1422 51.1141 21.326 51.1433 21.5175C51.1724 21.709 51.1635 21.9043 51.117 22.0923C51.0705 22.2803 50.9874 22.4573 50.8723 22.6131L19.8033 64.8419C19.6519 65.0476 19.4615 65.2215 19.2429 65.3536C19.0243 65.4857 18.7818 65.5735 18.5292 65.6119C18.2767 65.6503 18.019 65.6386 17.771 65.5775C17.523 65.5163 17.2894 65.407 17.0837 65.2556L4.66787 56.1279C4.51171 56.0133 4.37969 55.8691 4.27938 55.7034C4.17907 55.5377 4.11244 55.3539 4.0833 55.1624C4.05417 54.971 4.0631 54.7756 4.10959 54.5876C4.15608 54.3996 4.23922 54.2226 4.35424 54.0668L35.7045 11.4464C35.841 11.2592 36.0201 11.1071 36.2269 11.0027C36.4338 10.8983 36.6625 10.8445 36.8942 10.8458ZM36.8942 7.90137C36.2006 7.90069 35.5166 8.06334 34.8975 8.37615C34.2784 8.68895 33.7417 9.14312 33.3309 9.70188L1.98209 52.3105C1.63819 52.7777 1.38972 53.3081 1.25088 53.8714C1.11204 54.4347 1.08556 55.0198 1.17293 55.5933C1.26031 56.1668 1.45983 56.7175 1.76011 57.2139C2.0604 57.7103 2.45555 58.1427 2.923 58.4864L15.3388 67.614C16.3835 68.3824 17.6906 68.7044 18.9727 68.5092C20.2549 68.3141 21.4069 67.6176 22.1755 66.5732L53.2445 24.3444C53.9376 23.4011 54.2279 22.2212 54.0515 21.064C53.875 19.9068 53.2464 18.867 52.3036 18.1729L39.5079 8.76114C38.7506 8.20225 37.834 7.9009 36.8928 7.90137H36.8942Z" fill="black"/>
<path d="M53.505 20.1309C52.8804 20.1324 52.2718 19.9332 51.769 19.5627L38.2223 9.60023C37.5944 9.13524 37.1761 8.44078 37.0586 7.66846C36.941 6.89614 37.1339 6.10871 37.595 5.47806L39.6668 2.6632C39.943 2.29217 40.3025 1.99112 40.7163 1.78426C41.13 1.57741 41.5866 1.47052 42.0492 1.47219C42.674 1.46995 43.2828 1.66924 43.7853 2.04046L57.3319 12.0029C57.9601 12.4676 58.3787 13.1621 58.4963 13.9346C58.6138 14.707 58.4207 15.4945 57.9592 16.1251L55.8875 18.9414C55.6108 19.3119 55.2512 19.6125 54.8375 19.819C54.4238 20.0256 53.9674 20.1324 53.505 20.1309Z" fill="#808080"/>
<path d="M42.0494 2.94443C42.3597 2.94325 42.6622 3.04183 42.9123 3.22562L56.4589 13.1895C56.7701 13.424 56.9772 13.771 57.0358 14.1562C57.0944 14.5413 56.9999 14.9342 56.7726 15.2506L54.7008 18.0655C54.5619 18.2507 54.3812 18.4006 54.1734 18.5029C53.9657 18.6052 53.7367 18.6571 53.5052 18.6543C53.1946 18.6556 52.8919 18.5565 52.6423 18.3717L39.0956 8.40926C38.7844 8.17475 38.5774 7.8278 38.5188 7.44261C38.4601 7.05742 38.5546 6.6646 38.782 6.34817L40.8537 3.53331C40.9927 3.34806 41.1734 3.19819 41.3811 3.09587C41.5889 2.99355 41.8178 2.94166 42.0494 2.94443ZM42.0494 1.92525e-05C41.3555 -0.00202899 40.6709 0.159381 40.0511 0.471172C39.4312 0.782962 38.8935 1.23636 38.4816 1.79464L36.4098 4.61097C35.7188 5.55559 35.4299 6.7353 35.6062 7.89227C35.7825 9.04924 36.4097 10.0894 37.3508 10.7854L50.8974 20.7493C51.8422 21.4402 53.0221 21.7291 54.1793 21.5528C55.3365 21.3765 56.3768 20.7494 57.0729 19.8085L59.1447 16.9922C59.8357 16.0476 60.1246 14.8679 59.9483 13.7109C59.772 12.5539 59.1448 11.5138 58.2038 10.8178L44.6571 0.853899C43.9014 0.298045 42.9875 -0.00119952 42.0494 1.92525e-05Z" fill="black"/>
<path d="M5.55433 59.4771L1.84961 64.4826C1.86433 67.4103 1.87857 70.338 1.89231 73.2657L10.3384 70.7865L14.0578 65.8075" stroke="black" stroke-width="2.5" stroke-miterlimit="10" stroke-linecap="round"/>
<path d="M10.5495 43.5289L8.81982 45.8516L25.8269 58.5122L27.5566 56.1895L10.5495 43.5289Z" fill="black"/>
<path d="M14.008 38.886L12.2783 41.2087L29.2854 53.8694L31.0151 51.5466L14.008 38.886Z" fill="black"/>
<path d="M41.1363 30.9135C42.7628 30.9135 44.0813 29.5952 44.0813 27.9691C44.0813 26.3429 42.7628 25.0247 41.1363 25.0247C39.5099 25.0247 38.1914 26.3429 38.1914 27.9691C38.1914 29.5952 39.5099 30.9135 41.1363 30.9135Z" fill="black"/>
<path d="M1.42829 77.5044V84.8213H0V77.5044H1.42829Z" fill="black"/>
<path d="M2.8374 84.8212V79.5978H4.2171V84.8212H2.8374ZM5.85743 84.8212V81.656C5.86351 81.548 5.84715 81.4399 5.80939 81.3386C5.77163 81.2372 5.71329 81.1448 5.63803 81.0671C5.46648 80.9184 5.24322 80.8432 5.01665 80.858C4.90908 80.8513 4.80126 80.8667 4.69993 80.9034C4.5986 80.9402 4.50592 80.9974 4.42766 81.0715C4.35452 81.1529 4.29835 81.2481 4.26245 81.3515C4.22655 81.4549 4.21163 81.5644 4.21857 81.6736L4.11256 80.5165C4.23701 80.232 4.42547 79.9801 4.66326 79.7804C4.90701 79.6012 5.20474 79.5108 5.50698 79.5242C5.74848 79.5113 5.98967 79.5547 6.21149 79.651C6.43331 79.7474 6.62968 79.894 6.78508 80.0792C7.08645 80.4502 7.23762 80.9743 7.2386 81.6515V84.8227L5.85743 84.8212Z" fill="black"/>
<path d="M8.59473 84.8213V77.5044H9.97443V84.8213H8.59473ZM9.4252 84.4591L9.23967 82.9383L11.6751 79.5979H13.1358L9.4252 84.4591ZM11.7959 84.8213L10.4706 82.1242L11.6074 81.4396L13.3847 84.8257L11.7959 84.8213Z" fill="black"/>
<path d="M16.9141 84.821V77.5042H18.2893V84.821H16.9141ZM17.5531 81.8545V80.5295H21.8233V81.8545H17.5531ZM20.9206 84.8181V77.5012H22.3003V84.8181H20.9206Z" fill="#808080"/>
<path d="M25.2294 84.8963C24.6713 84.8963 24.2546 84.7638 23.9763 84.4988C23.698 84.2338 23.5581 83.8274 23.5581 83.2813C23.5581 82.7611 23.7132 82.3729 24.0234 82.1167C24.3336 81.8606 24.7994 81.732 25.4208 81.731H26.7283L26.799 82.7822H25.4252C25.2597 82.7702 25.0949 82.8137 24.9569 82.9058C24.9034 82.9519 24.8614 83.0098 24.8343 83.075C24.8072 83.1402 24.7957 83.2108 24.8009 83.2813C24.7965 83.3566 24.8126 83.4318 24.8476 83.4987C24.8827 83.5656 24.9352 83.6217 24.9996 83.6611C25.1813 83.7545 25.3848 83.7972 25.5886 83.7848C25.8678 83.7992 26.147 83.7561 26.4088 83.6581C26.4891 83.629 26.5584 83.5757 26.6071 83.5055C26.6559 83.4354 26.6818 83.3519 26.6812 83.2665L26.7857 84.0262C26.7771 84.1218 26.749 84.2145 26.7032 84.2989C26.6573 84.3832 26.5947 84.4572 26.5192 84.5164C26.3503 84.6499 26.1552 84.7463 25.9464 84.7991C25.7128 84.8632 25.4716 84.8959 25.2294 84.8963ZM26.6841 84.8212V81.5102C26.6901 81.4046 26.6713 81.2991 26.6294 81.202C26.5875 81.1049 26.5236 81.0189 26.4427 80.9508C26.2438 80.8086 26.0019 80.7395 25.758 80.755C25.5614 80.7551 25.3661 80.7864 25.1793 80.8477C24.9946 80.9061 24.822 80.9974 24.6698 81.1171L23.8143 80.2765C24.0405 80.0271 24.324 79.8366 24.6404 79.7215C25.0036 79.5852 25.3891 79.5178 25.7771 79.5227C26.4643 79.5227 26.9963 79.692 27.3733 80.0306C27.7502 80.3692 27.9382 80.8472 27.9372 81.4646V84.8212H26.6841Z" fill="#808080"/>
<path d="M29.2964 84.8211V79.5977H30.7689V84.8211H29.2964ZM32.2413 81.0522C32.1729 80.9842 32.089 80.9337 31.9969 80.905C31.887 80.8697 31.7721 80.8528 31.6567 80.8549C31.5356 80.8481 31.4146 80.8688 31.3026 80.9154C31.1906 80.9621 31.0907 81.0335 31.0103 81.1243C30.8462 81.3373 30.7647 81.6024 30.7806 81.8707L30.6761 80.5134C30.801 80.2293 30.9936 79.9801 31.2371 79.7876C31.4531 79.6184 31.7196 79.5267 31.9939 79.527C32.195 79.5243 32.3948 79.5593 32.5829 79.6301C32.7564 79.6964 32.9132 79.7999 33.0423 79.9333L32.2413 81.0522Z" fill="#808080"/>
<path d="M33.6943 84.8211V79.5977H35.0755V84.8211H33.6943ZM36.7394 84.8211V81.806C36.755 81.5509 36.6753 81.299 36.5156 81.0993C36.4331 81.0138 36.3329 80.9472 36.222 80.9042C36.1111 80.8612 35.9922 80.8429 35.8736 80.8505C35.766 80.8441 35.6583 80.8598 35.557 80.8965C35.4558 80.9332 35.363 80.9902 35.2846 81.064C35.2117 81.1456 35.1557 81.2408 35.1198 81.3442C35.084 81.4475 35.0689 81.5569 35.0755 81.6661L34.971 80.509C35.0969 80.2198 35.2934 79.9667 35.5423 79.7729C35.7805 79.5994 36.0693 79.5093 36.3639 79.5167C36.6125 79.5038 36.8604 79.5513 37.0866 79.6551C37.3128 79.759 37.5104 79.9161 37.6626 80.113C37.9669 80.5056 38.1196 81.0665 38.1206 81.7957V84.8152L36.7394 84.8211ZM39.7845 84.8211V81.806C39.8005 81.5515 39.7224 81.3 39.5651 81.0993C39.3991 80.9413 39.1793 80.8524 38.9501 80.8505C38.721 80.8485 38.4997 80.9338 38.3311 81.089C38.1787 81.2807 38.1027 81.5219 38.1176 81.7663L37.8614 80.5591C38.0046 80.2512 38.2266 79.9866 38.5049 79.792C38.7625 79.6148 39.0683 79.5208 39.381 79.5226C39.6321 79.5097 39.8826 79.557 40.1117 79.6608C40.3407 79.7645 40.5415 79.9216 40.6974 80.1189C41.0086 80.5115 41.1637 81.0724 41.1627 81.8016V84.8211H39.7845Z" fill="#808080"/>
<path d="M44.6259 84.8962C43.9074 84.8962 43.3518 84.6999 42.9591 84.3073C42.5664 83.9147 42.3701 83.3553 42.3701 82.629V81.7781C42.3701 81.0646 42.5664 80.5115 42.9591 80.1189C43.3518 79.7263 43.9074 79.53 44.6259 79.53C45.3435 79.53 45.8986 79.7263 46.2913 80.1189C46.6839 80.5115 46.8803 81.0646 46.8803 81.7781V82.6437C46.8803 83.3622 46.6839 83.9182 46.2913 84.3118C45.8986 84.7053 45.3435 84.9001 44.6259 84.8962ZM44.6259 83.5712C44.7452 83.5781 44.8647 83.5599 44.9765 83.5178C45.0883 83.4757 45.1901 83.4107 45.2753 83.3268C45.4393 83.1367 45.5223 82.8899 45.5065 82.6393V81.7737C45.5222 81.5258 45.4391 81.2818 45.2753 81.095C45.1897 81.0119 45.0878 80.9475 44.976 80.906C44.8642 80.8644 44.745 80.8466 44.6259 80.8535C44.508 80.8467 44.3899 80.8646 44.2793 80.9062C44.1688 80.9478 44.0681 81.0121 43.9839 81.095C43.8223 81.2828 43.7405 81.5264 43.7557 81.7737V82.6393C43.7403 82.8893 43.8221 83.1357 43.9839 83.3268C44.0673 83.4092 44.1669 83.4732 44.2765 83.5148C44.386 83.5563 44.503 83.5746 44.62 83.5683L44.6259 83.5712Z" fill="#808080"/>
<path d="M48.1377 84.821V79.5976H49.5174V84.821H48.1377ZM51.1577 84.821V81.6558C51.164 81.5479 51.1479 81.4399 51.1104 81.3386C51.0729 81.2372 51.0148 81.1447 50.9398 81.0669C50.7677 80.9181 50.544 80.843 50.3169 80.8578C50.2094 80.8511 50.1016 80.8666 50.0002 80.9033C49.8989 80.94 49.8062 80.9972 49.728 81.0713C49.6548 81.1527 49.5986 81.2479 49.5627 81.3513C49.5268 81.4547 49.5119 81.5642 49.5189 81.6735L49.4129 80.5163C49.5373 80.2318 49.7258 79.9799 49.9636 79.7802C50.2073 79.601 50.505 79.5106 50.8073 79.524C51.0488 79.5109 51.2901 79.5542 51.5119 79.6505C51.7338 79.7469 51.9301 79.8936 52.0854 80.0791C52.3877 80.45 52.5389 80.9742 52.5389 81.6514V84.8225L51.1577 84.821Z" fill="#808080"/>
<path d="M55.3751 85.248L53.187 79.5977H54.4857L56.2424 84.1365L55.3751 85.248ZM56.7209 79.5977H58.0196L55.6902 86.043C55.6002 86.3472 55.4084 86.6112 55.1469 86.7909C54.8522 86.9467 54.5214 87.0214 54.1883 87.0073H53.8805V85.669H54.1883C54.3167 85.673 54.4435 85.6397 54.5535 85.5733C54.6631 85.494 54.7433 85.3807 54.7817 85.2509L56.7209 79.5977Z" fill="#808080"/>
</svg>
