<svg width="60" height="88" viewBox="0 0 60 88" fill="none" xmlns="http://www.w3.org/2000/svg">
<path d="M12.0932 41.0938L10.3635 43.4165L27.3706 56.0771L29.1003 53.7544L12.0932 41.0938Z" fill="#808080"/>
<path d="M36.894 10.8458C37.2077 10.848 37.5123 10.9513 37.7627 11.1402L50.5585 20.552C50.7146 20.6666 50.8466 20.8109 50.947 20.9765C51.0473 21.1422 51.1139 21.326 51.143 21.5175C51.1722 21.709 51.1632 21.9043 51.1167 22.0923C51.0702 22.2803 50.9871 22.4573 50.8721 22.6131L19.8031 64.8419C19.6517 65.0476 19.4612 65.2215 19.2426 65.3536C19.024 65.4857 18.7815 65.5735 18.529 65.6119C18.2764 65.6503 18.0188 65.6386 17.7708 65.5775C17.5227 65.5163 17.2892 65.407 17.0834 65.2556L4.66763 56.1279C4.51146 56.0133 4.37944 55.8691 4.27913 55.7034C4.17882 55.5377 4.11219 55.3539 4.08306 55.1624C4.05392 54.971 4.06286 54.7756 4.10935 54.5876C4.15584 54.3996 4.23898 54.2226 4.35399 54.0668L35.7042 11.4464C35.8408 11.2592 36.0198 11.1071 36.2267 11.0027C36.4335 10.8983 36.6623 10.8445 36.894 10.8458ZM36.894 7.90137C36.2004 7.90069 35.5163 8.06334 34.8972 8.37615C34.2782 8.68895 33.7415 9.14312 33.3306 9.70188L1.98185 52.3105C1.63794 52.7777 1.38948 53.3081 1.25064 53.8714C1.1118 54.4347 1.08531 55.0198 1.17269 55.5933C1.26006 56.1668 1.45959 56.7175 1.75987 57.2139C2.06015 57.7103 2.4553 58.1427 2.92276 58.4864L15.3386 67.614C16.3832 68.3824 17.6904 68.7044 18.9725 68.5092C20.2546 68.3141 21.4067 67.6176 22.1752 66.5732L53.2442 24.3444C53.9374 23.4011 54.2277 22.2212 54.0512 21.064C53.8748 19.9068 53.2461 18.867 52.3033 18.1729L39.5076 8.76114C38.7503 8.20225 37.8338 7.9009 36.8925 7.90137H36.894Z" fill="black"/>
<path d="M53.505 20.1309C52.8804 20.1324 52.2718 19.9332 51.769 19.5627L38.2223 9.60023C37.5944 9.13524 37.1761 8.44078 37.0586 7.66846C36.941 6.89614 37.1339 6.10871 37.595 5.47806L39.6668 2.6632C39.943 2.29217 40.3025 1.99112 40.7163 1.78426C41.13 1.57741 41.5866 1.47052 42.0492 1.47219C42.674 1.46995 43.2828 1.66924 43.7853 2.04046L57.3319 12.0029C57.9601 12.4676 58.3787 13.1621 58.4963 13.9346C58.6138 14.707 58.4207 15.4945 57.9592 16.1251L55.8875 18.9414C55.6108 19.3119 55.2512 19.6125 54.8375 19.819C54.4238 20.0256 53.9674 20.1324 53.505 20.1309Z" fill="#808080"/>
<path d="M42.0491 2.94443C42.3595 2.94325 42.662 3.04183 42.912 3.22562L56.4587 13.1895C56.7699 13.424 56.9769 13.771 57.0355 14.1562C57.0942 14.5413 56.9997 14.9342 56.7723 15.2506L54.7006 18.0655C54.5616 18.2507 54.3809 18.4006 54.1732 18.5029C53.9654 18.6052 53.7365 18.6571 53.5049 18.6543C53.1943 18.6556 52.8917 18.5565 52.6421 18.3717L39.0954 8.40926C38.7842 8.17475 38.5771 7.8278 38.5185 7.44261C38.4599 7.05742 38.5544 6.6646 38.7817 6.34817L40.8535 3.53331C40.9924 3.34806 41.1731 3.19819 41.3809 3.09587C41.5886 2.99355 41.8176 2.94166 42.0491 2.94443ZM42.0491 1.92525e-05C41.3553 -0.00202899 40.6707 0.159381 40.0508 0.471172C39.431 0.782962 38.8933 1.23636 38.4814 1.79464L36.4096 4.61097C35.7186 5.55559 35.4297 6.7353 35.606 7.89227C35.7823 9.04924 36.4095 10.0894 37.3505 10.7854L50.8972 20.7493C51.842 21.4402 53.0219 21.7291 54.1791 21.5528C55.3362 21.3765 56.3766 20.7494 57.0727 19.8085L59.1445 16.9922C59.8355 16.0476 60.1244 14.8679 59.9481 13.7109C59.7718 12.5539 59.1446 11.5138 58.2036 10.8178L44.6569 0.853899C43.9012 0.298045 42.9873 -0.00119952 42.0491 1.92525e-05Z" fill="black"/>
<path d="M5.55409 59.4771L1.84937 64.4826C1.86409 67.4103 1.87832 70.338 1.89207 73.2657L10.3381 70.7865L14.0576 65.8075" stroke="black" stroke-width="2.5" stroke-miterlimit="10" stroke-linecap="round"/>
<path d="M10.5495 43.5289L8.81982 45.8516L25.8269 58.5122L27.5566 56.1895L10.5495 43.5289Z" fill="black"/>
<path d="M14.0078 38.8863L12.2781 41.209L29.2852 53.8696L31.0149 51.5469L14.0078 38.8863Z" fill="black"/>
<path d="M41.1363 30.9132C42.7628 30.9132 44.0813 29.595 44.0813 27.9688C44.0813 26.3427 42.7628 25.0244 41.1363 25.0244C39.5099 25.0244 38.1914 26.3427 38.1914 27.9688C38.1914 29.595 39.5099 30.9132 41.1363 30.9132Z" fill="black"/>
<path d="M1.42829 77.5044V84.8213H0V77.5044H1.42829Z" fill="black"/>
<path d="M2.8374 84.8212V79.5978H4.2171V84.8212H2.8374ZM5.85743 84.8212V81.656C5.86351 81.548 5.84715 81.4399 5.80939 81.3386C5.77163 81.2372 5.71329 81.1448 5.63803 81.0671C5.46648 80.9184 5.24322 80.8432 5.01665 80.858C4.90908 80.8513 4.80126 80.8667 4.69993 80.9034C4.5986 80.9402 4.50592 80.9974 4.42766 81.0715C4.35452 81.1529 4.29835 81.2481 4.26245 81.3515C4.22655 81.4549 4.21163 81.5644 4.21857 81.6736L4.11256 80.5165C4.23701 80.232 4.42547 79.9801 4.66326 79.7804C4.90701 79.6012 5.20474 79.5108 5.50698 79.5242C5.74848 79.5113 5.98967 79.5547 6.21149 79.651C6.43331 79.7474 6.62968 79.894 6.78508 80.0792C7.08645 80.4502 7.23762 80.9743 7.2386 81.6515V84.8227L5.85743 84.8212Z" fill="black"/>
<path d="M8.59473 84.8213V77.5044H9.97443V84.8213H8.59473ZM9.4252 84.4591L9.23967 82.9383L11.6751 79.5979H13.1358L9.4252 84.4591ZM11.7959 84.8213L10.4706 82.1242L11.6074 81.4396L13.3847 84.8257L11.7959 84.8213Z" fill="black"/>
<path d="M16.9143 84.8213V77.5044H18.2896V84.8213H16.9143ZM17.5534 81.8548V80.5298H21.8235V81.8548H17.5534ZM20.9209 84.8183V77.5015H22.3006V84.8183H20.9209Z" fill="#808080"/>
<path d="M25.2291 84.8963C24.671 84.8963 24.2543 84.7638 23.976 84.4988C23.6977 84.2338 23.5579 83.8274 23.5579 83.2813C23.5579 82.7611 23.713 82.3729 24.0232 82.1167C24.3334 81.8606 24.7991 81.732 25.4205 81.731H26.7281L26.7988 82.7822H25.4249C25.2595 82.7702 25.0947 82.8137 24.9567 82.9058C24.9032 82.9519 24.8612 83.0098 24.8341 83.075C24.807 83.1402 24.7955 83.2108 24.8006 83.2813C24.7962 83.3566 24.8124 83.4318 24.8474 83.4987C24.8824 83.5656 24.935 83.6217 24.9994 83.6611C25.1811 83.7545 25.3845 83.7972 25.5884 83.7848C25.8676 83.7992 26.1467 83.7561 26.4086 83.6581C26.4888 83.629 26.5581 83.5757 26.6069 83.5055C26.6557 83.4354 26.6815 83.3519 26.681 83.2665L26.7855 84.0262C26.7769 84.1218 26.7488 84.2145 26.7029 84.2989C26.6571 84.3832 26.5945 84.4572 26.519 84.5164C26.3501 84.6499 26.1549 84.7463 25.9462 84.7991C25.7126 84.8632 25.4714 84.8959 25.2291 84.8963ZM26.6839 84.8212V81.5102C26.6898 81.4046 26.6711 81.2991 26.6292 81.202C26.5873 81.1049 26.5233 81.0189 26.4424 80.9508C26.2435 80.8086 26.0017 80.7395 25.7577 80.755C25.5611 80.7551 25.3658 80.7864 25.179 80.8477C24.9944 80.9061 24.8218 80.9974 24.6696 81.1171L23.8141 80.2765C24.0402 80.0271 24.3238 79.8366 24.6401 79.7215C25.0034 79.5852 25.3889 79.5178 25.7769 79.5227C26.464 79.5227 26.9961 79.692 27.373 80.0306C27.75 80.3692 27.938 80.8472 27.937 81.4646V84.8212H26.6839Z" fill="#808080"/>
<path d="M29.2961 84.8211V79.5977H30.7686V84.8211H29.2961ZM32.2411 81.0522C32.1726 80.9842 32.0888 80.9337 31.9966 80.905C31.8868 80.8697 31.7719 80.8528 31.6565 80.8549C31.5354 80.8481 31.4143 80.8688 31.3024 80.9154C31.1904 80.9621 31.0905 81.0335 31.0101 81.1243C30.846 81.3373 30.7644 81.6024 30.7804 81.8707L30.6758 80.5134C30.8008 80.2293 30.9934 79.9801 31.2369 79.7876C31.4528 79.6184 31.7194 79.5267 31.9937 79.527C32.1947 79.5243 32.3945 79.5593 32.5827 79.6301C32.7561 79.6964 32.913 79.7999 33.0421 79.9333L32.2411 81.0522Z" fill="#808080"/>
<path d="M33.6943 84.8211V79.5977H35.0755V84.8211H33.6943ZM36.7394 84.8211V81.806C36.755 81.5509 36.6753 81.299 36.5156 81.0993C36.4331 81.0138 36.3329 80.9472 36.222 80.9042C36.1111 80.8612 35.9922 80.8429 35.8736 80.8505C35.766 80.8441 35.6583 80.8598 35.557 80.8965C35.4558 80.9332 35.363 80.9902 35.2846 81.064C35.2117 81.1456 35.1557 81.2408 35.1198 81.3442C35.084 81.4475 35.0689 81.5569 35.0755 81.6661L34.971 80.509C35.0969 80.2198 35.2934 79.9667 35.5423 79.7729C35.7805 79.5994 36.0693 79.5093 36.3639 79.5167C36.6125 79.5038 36.8604 79.5513 37.0866 79.6551C37.3128 79.759 37.5104 79.9161 37.6626 80.113C37.9669 80.5056 38.1196 81.0665 38.1206 81.7957V84.8152L36.7394 84.8211ZM39.7845 84.8211V81.806C39.8005 81.5515 39.7224 81.3 39.5651 81.0993C39.3991 80.9413 39.1793 80.8524 38.9501 80.8505C38.721 80.8485 38.4997 80.9338 38.3311 81.089C38.1787 81.2807 38.1027 81.5219 38.1176 81.7663L37.8614 80.5591C38.0046 80.2512 38.2266 79.9866 38.5049 79.792C38.7625 79.6148 39.0683 79.5208 39.381 79.5226C39.6321 79.5097 39.8826 79.557 40.1117 79.6608C40.3407 79.7645 40.5415 79.9216 40.6974 80.1189C41.0086 80.5115 41.1637 81.0724 41.1627 81.8016V84.8211H39.7845Z" fill="#808080"/>
<path d="M44.6259 84.8965C43.9074 84.8965 43.3518 84.7002 42.9591 84.3076C42.5664 83.915 42.3701 83.3556 42.3701 82.6293V81.7783C42.3701 81.0648 42.5664 80.5117 42.9591 80.1192C43.3518 79.7266 43.9074 79.5303 44.6259 79.5303C45.3435 79.5303 45.8986 79.7266 46.2913 80.1192C46.6839 80.5117 46.8803 81.0648 46.8803 81.7783V82.644C46.8803 83.3624 46.6839 83.9184 46.2913 84.312C45.8986 84.7056 45.3435 84.9004 44.6259 84.8965ZM44.6259 83.5715C44.7452 83.5783 44.8647 83.5601 44.9765 83.5181C45.0883 83.476 45.1901 83.4109 45.2753 83.3271C45.4393 83.137 45.5223 82.8902 45.5065 82.6396V81.7739C45.5222 81.526 45.4391 81.282 45.2753 81.0952C45.1897 81.0122 45.0878 80.9478 44.976 80.9062C44.8642 80.8647 44.745 80.8468 44.6259 80.8538C44.508 80.8469 44.3899 80.8649 44.2793 80.9065C44.1688 80.9481 44.0681 81.0124 43.9839 81.0952C43.8223 81.2831 43.7405 81.5266 43.7557 81.7739V82.6396C43.7403 82.8896 43.8221 83.1359 43.9839 83.3271C44.0673 83.4094 44.1669 83.4734 44.2765 83.515C44.386 83.5566 44.503 83.5748 44.62 83.5685L44.6259 83.5715Z" fill="#808080"/>
<path d="M48.1377 84.8213V79.5979H49.5174V84.8213H48.1377ZM51.1577 84.8213V81.656C51.164 81.5482 51.1479 81.4401 51.1104 81.3388C51.0729 81.2375 51.0148 81.145 50.9398 81.0672C50.7677 80.9184 50.544 80.8433 50.3169 80.8581C50.2094 80.8513 50.1016 80.8668 50.0002 80.9035C49.8989 80.9403 49.8062 80.9975 49.728 81.0716C49.6548 81.153 49.5986 81.2482 49.5627 81.3516C49.5268 81.455 49.5119 81.5645 49.5189 81.6737L49.4129 80.5165C49.5373 80.2321 49.7258 79.9802 49.9636 79.7804C50.2073 79.6013 50.505 79.5109 50.8073 79.5243C51.0488 79.5111 51.2901 79.5544 51.5119 79.6508C51.7338 79.7471 51.9301 79.8938 52.0854 80.0793C52.3877 80.4503 52.5389 80.9744 52.5389 81.6516V84.8227L51.1577 84.8213Z" fill="#808080"/>
<path d="M55.3751 85.248L53.187 79.5977H54.4857L56.2424 84.1365L55.3751 85.248ZM56.7209 79.5977H58.0196L55.6902 86.043C55.6002 86.3472 55.4084 86.6112 55.1469 86.7909C54.8522 86.9467 54.5214 87.0214 54.1883 87.0073H53.8805V85.669H54.1883C54.3167 85.673 54.4435 85.6397 54.5535 85.5733C54.6631 85.494 54.7433 85.3807 54.7817 85.2509L56.7209 79.5977Z" fill="#808080"/>
</svg>
