<svg width="92" height="106" viewBox="0 0 92 106" fill="none" xmlns="http://www.w3.org/2000/svg">
<path d="M45.8421 63.1567C35.4297 63.1567 26.924 54.6999 26.924 44.2389C26.924 33.778 35.4297 25.3701 45.8421 25.3701C56.2542 25.3701 64.7599 33.8269 64.7599 44.2878C64.7599 54.7488 56.2542 63.1567 45.8421 63.1567ZM45.8421 32.7026C39.4872 32.7026 34.2565 37.8842 34.2565 44.2878C34.2565 50.6915 39.4383 55.8731 45.8421 55.8731C52.2458 55.8731 57.4274 50.6915 57.4274 44.2878C57.4274 37.8842 52.1969 32.7026 45.8421 32.7026Z" fill="#292D32"/>
<path d="M45.8362 105.148C38.6014 105.148 31.3178 102.411 25.6473 96.9845C11.2267 83.1016 -4.70922 60.9575 1.30343 34.6094C6.72948 10.7054 27.6027 0 45.8362 0H45.8851C64.1185 0 84.9917 10.7054 90.4178 34.6583C96.3815 61.0064 80.4456 83.1016 66.025 96.9845C60.3545 102.411 53.0709 105.148 45.8362 105.148ZM45.8362 7.3325C31.6111 7.3325 13.3287 14.9094 8.48928 36.2225C3.20988 59.2466 17.6793 79.0932 30.7801 91.6562C39.2369 99.8197 52.4843 99.8197 60.9411 91.6562C73.993 79.0932 88.4624 59.2466 83.2808 36.2225C78.3925 14.9094 60.0612 7.3325 45.8362 7.3325Z" fill="#292D32"/>
</svg>
