<svg width="105" height="105" viewBox="0 0 105 105" fill="none" xmlns="http://www.w3.org/2000/svg">
<path d="M78.977 104.815C73.4681 104.815 67.6667 103.499 61.6703 100.964C55.8202 98.4775 49.9213 95.0649 44.1686 90.9211C38.4647 86.7285 32.9558 82.0483 27.7395 76.9295C22.5718 71.7131 17.8917 66.2042 13.7479 60.549C9.55524 54.6989 6.19141 48.8487 3.8026 43.1936C1.26753 37.1484 0 31.2983 0 25.7894C0 21.9868 0.682517 18.3792 1.9988 15.0154C3.36384 11.554 5.55764 8.33646 8.53147 5.55764C12.2853 1.85255 16.5754 0 21.158 0C23.0593 0 25.0094 0.438761 26.6669 1.21878C28.5682 2.0963 30.177 3.41259 31.347 5.16763L42.6573 21.1093C43.6811 22.5231 44.4611 23.8881 44.9974 25.2531C45.6312 26.7157 45.9724 28.1782 45.9724 29.592C45.9724 31.4445 45.4362 33.2483 44.4124 34.9546C43.6811 36.2709 42.5598 37.6847 41.146 39.0985L37.831 42.5598C37.8797 42.7061 37.9285 42.8036 37.9772 42.9011C38.5622 43.9249 39.7323 45.6799 41.9748 48.3125C44.3636 51.0425 46.6062 53.5289 48.8488 55.8202C51.7251 58.6477 54.1139 60.8903 56.3564 62.7428C59.1353 65.0829 60.9391 66.2529 62.0116 66.7892L61.9141 67.033L65.4729 63.5229C66.9842 62.0116 68.4467 60.8903 69.8605 60.159C72.5419 58.5015 75.9544 58.209 79.367 59.6228C80.6346 60.159 81.9996 60.8903 83.4621 61.9141L99.6475 73.4194C101.451 74.6381 102.768 76.1982 103.548 78.0507C104.279 79.9033 104.62 81.6096 104.62 83.3159C104.62 85.6559 104.084 87.996 103.06 90.1898C102.036 92.3836 100.769 94.2849 99.16 96.0399C96.3812 99.1113 93.3586 101.305 89.8485 102.719C86.4847 104.084 82.8284 104.815 78.977 104.815ZM21.158 7.31269C18.4767 7.31269 15.9904 8.48272 13.6016 10.8228C11.359 12.9191 9.799 15.2104 8.82397 17.6967C7.8002 20.2318 7.31269 22.9131 7.31269 25.7894C7.31269 30.3233 8.38521 35.2472 10.5303 40.3173C12.7241 45.4849 15.7954 50.8475 19.6955 56.2102C23.5956 61.5728 28.032 66.7892 32.9071 71.7131C37.7822 76.5394 43.0473 81.0246 48.4587 84.9734C53.7239 88.8248 59.1353 91.9448 64.4979 94.1874C72.8344 97.7462 80.6346 98.575 87.0697 95.8937C89.556 94.8699 91.7498 93.3099 93.7486 91.0673C94.8699 89.8485 95.7475 88.5322 96.4787 86.9722C97.0637 85.7534 97.3562 84.4859 97.3562 83.2184C97.3562 82.4383 97.21 81.6583 96.82 80.7808C96.6737 80.4883 96.3812 79.952 95.4549 79.3183L79.2695 67.813C78.2945 67.1305 77.417 66.6429 76.5882 66.3017C75.5157 65.8629 75.0769 65.4242 73.4194 66.4479C72.4443 66.9355 71.5668 67.6667 70.5918 68.6417L66.8867 72.2981C64.9854 74.1506 62.0603 74.5894 59.8178 73.7606L58.5015 73.1756C56.5027 72.1031 54.1626 70.4455 51.5788 68.2517C49.2388 66.2529 46.7037 63.9129 43.6324 60.8903C41.2436 58.4527 38.8547 55.8689 36.3684 52.9926C34.0771 50.3113 32.4196 48.02 31.3958 46.1187L30.8108 44.6561C30.5183 43.5349 30.4208 42.9011 30.4208 42.2186C30.4208 40.4635 31.0545 38.9035 32.2733 37.6847L35.9297 33.8821C36.9047 32.9071 37.636 31.9808 38.1235 31.152C38.5135 30.5183 38.6597 29.982 38.6597 29.4945C38.6597 29.1045 38.5135 28.5195 38.2697 27.9345C37.9285 27.1544 37.3922 26.2769 36.7097 25.3506L25.3994 9.36024C24.9119 8.67772 24.3269 8.19021 23.5956 7.84895C22.8156 7.50769 21.9868 7.31269 21.158 7.31269ZM61.9141 67.0817L61.1341 70.3968L62.4503 66.9842C62.2066 66.9354 62.0116 66.9842 61.9141 67.0817Z" fill="#292D32"/>
</svg>
