<svg width="36" height="36" viewBox="0 0 36 36" fill="none" xmlns="http://www.w3.org/2000/svg">
<path d="M17.0071 34.0142C7.63246 34.0142 0 26.3818 0 17.0071C0 7.63246 7.63246 0 17.0071 0C26.3818 0 34.0142 7.63246 34.0142 17.0071C34.0142 26.3818 26.3818 34.0142 17.0071 34.0142ZM17.0071 2.48885C8.99303 2.48885 2.48885 9.00962 2.48885 17.0071C2.48885 25.0046 8.99303 31.5254 17.0071 31.5254C25.0212 31.5254 31.5254 25.0046 31.5254 17.0071C31.5254 9.00962 25.0212 2.48885 17.0071 2.48885Z" fill="black"/>
<path d="M34.4297 35.6733C34.1145 35.6733 33.7992 35.5571 33.5503 35.3083L30.2319 31.9898C29.7507 31.5086 29.7507 30.7122 30.2319 30.231C30.713 29.7498 31.5095 29.7498 31.9906 30.231L35.3091 33.5495C35.7903 34.0306 35.7903 34.8271 35.3091 35.3083C35.0602 35.5571 34.745 35.6733 34.4297 35.6733Z" fill="black"/>
</svg>
