<svg width="36" height="36" viewBox="0 0 36 36" fill="none" xmlns="http://www.w3.org/2000/svg">
<path d="M17.0071 34.0142C7.63246 34.0142 0 26.3818 0 17.0071C0 7.63246 7.63246 0 17.0071 0C26.3818 0 34.0142 7.63246 34.0142 17.0071C34.0142 26.3818 26.3818 34.0142 17.0071 34.0142ZM17.0071 2.48885C8.99303 2.48885 2.48885 9.00962 2.48885 17.0071C2.48885 25.0046 8.99303 31.5254 17.0071 31.5254C25.0212 31.5254 31.5254 25.0046 31.5254 17.0071C31.5254 9.00962 25.0212 2.48885 17.0071 2.48885Z" fill="black"/>
<path d="M34.4298 35.6733C34.1146 35.6733 33.7993 35.5571 33.5504 35.3082L30.232 31.9898C29.7508 31.5086 29.7508 30.7122 30.232 30.231C30.7132 29.7498 31.5096 29.7498 31.9908 30.231L35.3092 33.5495C35.7904 34.0306 35.7904 34.8271 35.3092 35.3082C35.0603 35.5571 34.7451 35.6733 34.4298 35.6733Z" fill="black"/>
</svg>
