<svg width="60" height="88" viewBox="0 0 60 88" fill="none" xmlns="http://www.w3.org/2000/svg">
<path d="M12.0932 41.0938L10.3635 43.4165L27.3706 56.0771L29.1003 53.7544L12.0932 41.0938Z" fill="#808080"/>
<path d="M36.894 10.8457C37.2077 10.848 37.5123 10.9512 37.7627 11.1402L50.5585 20.552C50.7146 20.6666 50.8466 20.8108 50.947 20.9765C51.0473 21.1422 51.1139 21.326 51.143 21.5175C51.1722 21.7089 51.1632 21.9043 51.1167 22.0923C51.0702 22.2803 50.9871 22.4573 50.8721 22.6131L19.8031 64.8418C19.6517 65.0476 19.4612 65.2214 19.2426 65.3536C19.024 65.4857 18.7815 65.5735 18.529 65.6119C18.2764 65.6503 18.0188 65.6386 17.7708 65.5774C17.5227 65.5163 17.2892 65.4069 17.0834 65.2555L4.66763 56.1278C4.51146 56.0133 4.37944 55.869 4.27913 55.7033C4.17882 55.5377 4.11219 55.3538 4.08306 55.1624C4.05392 54.9709 4.06286 54.7756 4.10935 54.5876C4.15584 54.3996 4.23898 54.2226 4.35399 54.0668L35.7042 11.4464C35.8408 11.2592 36.0198 11.1071 36.2267 11.0027C36.4335 10.8982 36.6623 10.8444 36.894 10.8457ZM36.894 7.90133C36.2004 7.90066 35.5163 8.06331 34.8972 8.37611C34.2782 8.68892 33.7415 9.14308 33.3306 9.70184L1.98185 52.3104C1.63794 52.7777 1.38948 53.3081 1.25064 53.8714C1.1118 54.4346 1.08531 55.0197 1.17269 55.5933C1.26006 56.1668 1.45959 56.7175 1.75987 57.2139C2.06015 57.7103 2.4553 58.1426 2.92276 58.4863L15.3386 67.614C16.3832 68.3824 17.6904 68.7044 18.9725 68.5092C20.2546 68.314 21.4067 67.6176 22.1752 66.5732L53.2442 24.3444C53.9374 23.401 54.2277 22.2212 54.0512 21.064C53.8748 19.9068 53.2461 18.8669 52.3033 18.1729L39.5076 8.7611C38.7503 8.20221 37.8338 7.90087 36.8925 7.90133H36.894Z" fill="black"/>
<path d="M53.505 20.1309C52.8804 20.1324 52.2718 19.9332 51.769 19.5627L38.2223 9.60025C37.5944 9.13525 37.1761 8.44079 37.0586 7.66848C36.941 6.89616 37.1339 6.10872 37.595 5.47807L39.6668 2.66322C39.943 2.29218 40.3025 1.99113 40.7163 1.78428C41.13 1.57742 41.5866 1.47053 42.0492 1.4722C42.674 1.46996 43.2828 1.66925 43.7853 2.04047L57.3319 12.0029C57.9601 12.4676 58.3787 13.1621 58.4963 13.9346C58.6138 14.707 58.4207 15.4946 57.9592 16.1251L55.8875 18.9414C55.6108 19.3119 55.2512 19.6125 54.8375 19.819C54.4238 20.0256 53.9674 20.1324 53.505 20.1309Z" fill="#808080"/>
<path d="M42.0491 2.94441C42.3595 2.94323 42.662 3.04181 42.912 3.2256L56.4587 13.1895C56.7699 13.424 56.9769 13.771 57.0355 14.1561C57.0942 14.5413 56.9997 14.9341 56.7723 15.2506L54.7006 18.0654C54.5616 18.2507 54.3809 18.4006 54.1732 18.5029C53.9654 18.6052 53.7365 18.6571 53.5049 18.6543C53.1943 18.6556 52.8917 18.5564 52.6421 18.3717L39.0954 8.40924C38.7842 8.17473 38.5771 7.82777 38.5185 7.44259C38.4599 7.0574 38.5544 6.66458 38.7817 6.34815L40.8535 3.53329C40.9924 3.34804 41.1731 3.19817 41.3809 3.09585C41.5886 2.99353 41.8176 2.94164 42.0491 2.94441ZM42.0491 -3.63569e-06C41.3553 -0.00205187 40.6707 0.159358 40.0508 0.471149C39.431 0.782939 38.8933 1.23634 38.4814 1.79462L36.4096 4.61095C35.7186 5.55557 35.4297 6.73528 35.606 7.89225C35.7823 9.04922 36.4095 10.0894 37.3505 10.7854L50.8972 20.7493C51.842 21.4402 53.0219 21.729 54.1791 21.5528C55.3362 21.3765 56.3766 20.7494 57.0727 19.8085L59.1445 16.9922C59.8355 16.0476 60.1244 14.8679 59.9481 13.7109C59.7718 12.5539 59.1446 11.5138 58.2036 10.8178L44.6569 0.853876C43.9012 0.298022 42.9873 -0.00122241 42.0491 -3.63569e-06Z" fill="black"/>
<path d="M5.55409 59.4771L1.84937 64.4826C1.86409 67.4103 1.87832 70.3381 1.89207 73.2658L10.3381 70.7866L14.0576 65.8076" stroke="black" stroke-width="2.5" stroke-miterlimit="10" stroke-linecap="round"/>
<path d="M10.5495 43.5287L8.81982 45.8514L25.8269 58.5121L27.5566 56.1893L10.5495 43.5287Z" fill="black"/>
<path d="M14.0078 38.8862L12.2781 41.2089L29.2852 53.8695L31.0149 51.5468L14.0078 38.8862Z" fill="black"/>
<path d="M41.1363 30.9134C42.7628 30.9134 44.0813 29.5951 44.0813 27.969C44.0813 26.3428 42.7628 25.0246 41.1363 25.0246C39.5099 25.0246 38.1914 26.3428 38.1914 27.969C38.1914 29.5951 39.5099 30.9134 41.1363 30.9134Z" fill="black"/>
<path d="M1.42829 77.5043V84.8211H0V77.5043H1.42829Z" fill="black"/>
<path d="M2.8374 84.8211V79.5977H4.2171V84.8211H2.8374ZM5.85743 84.8211V81.6559C5.86351 81.5479 5.84715 81.4398 5.80939 81.3385C5.77163 81.2371 5.71329 81.1447 5.63803 81.067C5.46648 80.9183 5.24322 80.8432 5.01665 80.858C4.90908 80.8512 4.80126 80.8667 4.69993 80.9034C4.5986 80.9401 4.50592 80.9973 4.42766 81.0714C4.35452 81.1529 4.29835 81.248 4.26245 81.3514C4.22655 81.4548 4.21163 81.5643 4.21857 81.6736L4.11256 80.5164C4.23701 80.2319 4.42547 79.98 4.66326 79.7803C4.90701 79.6011 5.20474 79.5107 5.50698 79.5241C5.74848 79.5112 5.98967 79.5546 6.21149 79.651C6.43331 79.7473 6.62968 79.8939 6.78508 80.0792C7.08645 80.4502 7.23762 80.9743 7.2386 81.6515V84.8226L5.85743 84.8211Z" fill="black"/>
<path d="M8.59473 84.8211V77.5043H9.97443V84.8211H8.59473ZM9.4252 84.459L9.23967 82.9382L11.6751 79.5977H13.1358L9.4252 84.459ZM11.7959 84.8211L10.4706 82.1241L11.6074 81.4395L13.3847 84.8255L11.7959 84.8211Z" fill="black"/>
<path d="M16.9143 84.8211V77.5043H18.2896V84.8211H16.9143ZM17.5534 81.8546V80.5297H21.8235V81.8546H17.5534ZM20.9209 84.8182V77.5013H22.3006V84.8182H20.9209Z" fill="#808080"/>
<path d="M25.2291 84.8962C24.671 84.8962 24.2543 84.7637 23.976 84.4987C23.6977 84.2337 23.5579 83.8274 23.5579 83.2812C23.5579 82.761 23.713 82.3729 24.0232 82.1167C24.3334 81.8605 24.7991 81.732 25.4205 81.731H26.7281L26.7988 82.7821H25.4249C25.2595 82.7702 25.0947 82.8137 24.9567 82.9058C24.9032 82.9518 24.8612 83.0098 24.8341 83.075C24.807 83.1402 24.7955 83.2108 24.8006 83.2812C24.7962 83.3566 24.8124 83.4317 24.8474 83.4986C24.8824 83.5655 24.935 83.6217 24.9994 83.661C25.1811 83.7544 25.3845 83.7971 25.5884 83.7847C25.8676 83.7991 26.1467 83.756 26.4086 83.6581C26.4888 83.6289 26.5581 83.5756 26.6069 83.5055C26.6557 83.4354 26.6815 83.3519 26.681 83.2665L26.7855 84.0261C26.7769 84.1217 26.7488 84.2145 26.7029 84.2988C26.6571 84.3831 26.5945 84.4572 26.519 84.5164C26.3501 84.6499 26.1549 84.7462 25.9462 84.7991C25.7126 84.8632 25.4714 84.8959 25.2291 84.8962ZM26.6839 84.8211V81.5101C26.6898 81.4046 26.6711 81.299 26.6292 81.2019C26.5873 81.1049 26.5233 81.0188 26.4424 80.9507C26.2435 80.8086 26.0017 80.7394 25.7577 80.7549C25.5611 80.755 25.3658 80.7863 25.179 80.8477C24.9944 80.906 24.8218 80.9973 24.6696 81.1171L23.8141 80.2764C24.0402 80.0271 24.3238 79.8366 24.6401 79.7214C25.0034 79.5851 25.3889 79.5177 25.7769 79.5227C26.464 79.5227 26.9961 79.692 27.373 80.0306C27.75 80.3692 27.938 80.8472 27.937 81.4645V84.8211H26.6839Z" fill="#808080"/>
<path d="M29.2961 84.8211V79.5977H30.7686V84.8211H29.2961ZM32.2411 81.0523C32.1726 80.9842 32.0888 80.9337 31.9966 80.9051C31.8868 80.8697 31.7719 80.8528 31.6565 80.855C31.5354 80.8482 31.4143 80.8688 31.3024 80.9155C31.1904 80.9622 31.0905 81.0336 31.0101 81.1244C30.846 81.3374 30.7644 81.6025 30.7804 81.8708L30.6758 80.5135C30.8008 80.2294 30.9934 79.9802 31.2369 79.7877C31.4528 79.6185 31.7194 79.5268 31.9937 79.5271C32.1947 79.5244 32.3945 79.5593 32.5827 79.6301C32.7561 79.6964 32.913 79.8 33.0421 79.9334L32.2411 81.0523Z" fill="#808080"/>
<path d="M33.6943 84.8211V79.5977H35.0755V84.8211H33.6943ZM36.7394 84.8211V81.8061C36.755 81.5509 36.6753 81.299 36.5156 81.0994C36.4331 81.0138 36.3329 80.9472 36.222 80.9042C36.1111 80.8613 35.9922 80.843 35.8736 80.8506C35.766 80.8442 35.6583 80.8598 35.557 80.8965C35.4558 80.9332 35.363 80.9902 35.2846 81.0641C35.2117 81.1457 35.1557 81.2409 35.1198 81.3442C35.084 81.4476 35.0689 81.557 35.0755 81.6662L34.971 80.509C35.0969 80.2198 35.2934 79.9668 35.5423 79.7729C35.7805 79.5994 36.0693 79.5094 36.3639 79.5168C36.6125 79.5039 36.8604 79.5513 37.0866 79.6552C37.3128 79.759 37.5104 79.9161 37.6626 80.113C37.9669 80.5056 38.1196 81.0665 38.1206 81.7958V84.8152L36.7394 84.8211ZM39.7845 84.8211V81.8061C39.8005 81.5516 39.7224 81.3001 39.5651 81.0994C39.3991 80.9414 39.1793 80.8524 38.9501 80.8505C38.721 80.8486 38.4997 80.9339 38.3311 81.0891C38.1787 81.2807 38.1027 81.522 38.1176 81.7663L37.8614 80.5591C38.0046 80.2512 38.2266 79.9866 38.5049 79.7921C38.7625 79.6149 39.0683 79.5208 39.381 79.5227C39.6321 79.5097 39.8826 79.5571 40.1117 79.6608C40.3407 79.7646 40.5415 79.9216 40.6974 80.1189C41.0086 80.5115 41.1637 81.0724 41.1627 81.8016V84.8211H39.7845Z" fill="#808080"/>
<path d="M44.6259 84.8962C43.9074 84.8962 43.3518 84.6999 42.9591 84.3073C42.5664 83.9147 42.3701 83.3553 42.3701 82.629V81.7781C42.3701 81.0646 42.5664 80.5115 42.9591 80.1189C43.3518 79.7263 43.9074 79.53 44.6259 79.53C45.3435 79.53 45.8986 79.7263 46.2913 80.1189C46.6839 80.5115 46.8803 81.0646 46.8803 81.7781V82.6437C46.8803 83.3622 46.6839 83.9182 46.2913 84.3118C45.8986 84.7053 45.3435 84.9001 44.6259 84.8962ZM44.6259 83.5712C44.7452 83.5781 44.8647 83.5599 44.9765 83.5178C45.0883 83.4757 45.1901 83.4107 45.2753 83.3268C45.4393 83.1367 45.5223 82.8899 45.5065 82.6393V81.7737C45.5222 81.5258 45.4391 81.2818 45.2753 81.095C45.1897 81.0119 45.0878 80.9475 44.976 80.906C44.8642 80.8644 44.745 80.8466 44.6259 80.8535C44.508 80.8467 44.3899 80.8646 44.2793 80.9062C44.1688 80.9478 44.0681 81.0121 43.9839 81.095C43.8223 81.2828 43.7405 81.5264 43.7557 81.7737V82.6393C43.7403 82.8893 43.8221 83.1357 43.9839 83.3268C44.0673 83.4092 44.1669 83.4732 44.2765 83.5148C44.386 83.5563 44.503 83.5746 44.62 83.5683L44.6259 83.5712Z" fill="#808080"/>
<path d="M48.1377 84.8211V79.5977H49.5174V84.8211H48.1377ZM51.1577 84.8211V81.6559C51.164 81.548 51.1479 81.44 51.1104 81.3387C51.0729 81.2373 51.0148 81.1448 50.9398 81.067C50.7677 80.9182 50.544 80.8431 50.3169 80.858C50.2094 80.8512 50.1016 80.8667 50.0002 80.9034C49.8989 80.9401 49.8062 80.9973 49.728 81.0714C49.6548 81.1528 49.5986 81.248 49.5627 81.3514C49.5268 81.4548 49.5119 81.5643 49.5189 81.6736L49.4129 80.5164C49.5373 80.2319 49.7258 79.98 49.9636 79.7803C50.2073 79.6011 50.505 79.5107 50.8073 79.5241C51.0488 79.511 51.2901 79.5543 51.5119 79.6507C51.7338 79.747 51.9301 79.8937 52.0854 80.0792C52.3877 80.4502 52.5389 80.9743 52.5389 81.6515V84.8226L51.1577 84.8211Z" fill="#808080"/>
<path d="M55.3751 85.2481L53.187 79.5977H54.4857L56.2424 84.1366L55.3751 85.2481ZM56.7209 79.5977H58.0196L55.6902 86.0431C55.6002 86.3472 55.4084 86.6113 55.1469 86.7909C54.8522 86.9468 54.5214 87.0215 54.1883 87.0074H53.8805V85.6691H54.1883C54.3167 85.673 54.4435 85.6398 54.5535 85.5734C54.6631 85.4941 54.7433 85.3807 54.7817 85.251L56.7209 79.5977Z" fill="#808080"/>
</svg>
