<svg width="60" height="88" viewBox="0 0 60 88" fill="none" xmlns="http://www.w3.org/2000/svg">
<path d="M12.0933 41.0938L10.3636 43.4165L27.3707 56.0771L29.1004 53.7544L12.0933 41.0938Z" fill="#808080"/>
<path d="M36.8941 10.8457C37.2078 10.848 37.5124 10.9512 37.7628 11.1402L50.5585 20.552C50.7147 20.6666 50.8467 20.8108 50.947 20.9765C51.0473 21.1422 51.114 21.326 51.1431 21.5175C51.1722 21.7089 51.1633 21.9043 51.1168 22.0923C51.0703 22.2803 50.9872 22.4572 50.8722 22.6131L19.8032 64.8418C19.6518 65.0475 19.4613 65.2214 19.2427 65.3535C19.0241 65.4857 18.7816 65.5734 18.529 65.6119C18.2765 65.6503 18.0188 65.6386 17.7708 65.5774C17.5228 65.5163 17.2892 65.4069 17.0835 65.2555L4.66769 56.1278C4.51152 56.0133 4.37951 55.869 4.27919 55.7033C4.17888 55.5377 4.11225 55.3538 4.08312 55.1624C4.05398 54.9709 4.06292 54.7756 4.10941 54.5876C4.1559 54.3996 4.23904 54.2226 4.35405 54.0668L35.7043 11.4464C35.8408 11.2592 36.0199 11.1071 36.2267 11.0026C36.4336 10.8982 36.6623 10.8444 36.8941 10.8457ZM36.8941 7.90132C36.2004 7.90065 35.5164 8.0633 34.8973 8.3761C34.2782 8.68891 33.7415 9.14307 33.3307 9.70183L1.98191 52.3104C1.63801 52.7777 1.38954 53.3081 1.2507 53.8713C1.11186 54.4346 1.08537 55.0197 1.17275 55.5932C1.26012 56.1668 1.45965 56.7174 1.75993 57.2138C2.06021 57.7102 2.45536 58.1426 2.92282 58.4863L15.3386 67.614C16.3833 68.3824 17.6905 68.7044 18.9726 68.5092C20.2547 68.314 21.4067 67.6176 22.1753 66.5731L53.2443 24.3444C53.9375 23.401 54.2277 22.2211 54.0513 21.064C53.8749 19.9068 53.2462 18.8669 52.3034 18.1729L39.5077 8.76109C38.7504 8.2022 37.8338 7.90086 36.8926 7.90132H36.8941Z" fill="black"/>
<path d="M53.5049 20.1309C52.8803 20.1324 52.2717 19.9332 51.7689 19.5627L38.2222 9.60025C37.5944 9.13525 37.176 8.44079 37.0585 7.66848C36.941 6.89616 37.1338 6.10872 37.595 5.47807L39.6667 2.66322C39.943 2.29218 40.3024 1.99113 40.7162 1.78428C41.13 1.57742 41.5865 1.47053 42.0492 1.4722C42.6739 1.46996 43.2827 1.66925 43.7852 2.04047L57.3319 12.0029C57.9601 12.4676 58.3787 13.1621 58.4962 13.9346C58.6138 14.707 58.4207 15.4946 57.9592 16.1251L55.8874 18.9414C55.6108 19.3119 55.2512 19.6125 54.8375 19.819C54.4237 20.0256 53.9674 20.1324 53.5049 20.1309Z" fill="#808080"/>
<path d="M42.0492 2.94442C42.3595 2.94324 42.662 3.04182 42.9121 3.22561L56.4587 13.1895C56.7699 13.424 56.977 13.771 57.0356 14.1561C57.0942 14.5413 56.9997 14.9342 56.7724 15.2506L54.7006 18.0654C54.5617 18.2507 54.381 18.4006 54.1733 18.5029C53.9655 18.6052 53.7366 18.6571 53.505 18.6543C53.1944 18.6556 52.8917 18.5564 52.6421 18.3717L39.0954 8.40924C38.7842 8.17474 38.5772 7.82778 38.5186 7.4426C38.46 7.05741 38.5544 6.66458 38.7818 6.34816L40.8536 3.5333C40.9925 3.34805 41.1732 3.19818 41.3809 3.09586C41.5887 2.99353 41.8176 2.94165 42.0492 2.94442ZM42.0492 3.99371e-06C41.3553 -0.00204424 40.6707 0.159366 40.0509 0.471157C39.431 0.782947 38.8934 1.23635 38.4814 1.79462L36.4097 4.61095C35.7186 5.55558 35.4297 6.73528 35.606 7.89225C35.7823 9.04922 36.4095 10.0894 37.3506 10.7854L50.8972 20.7493C51.842 21.4402 53.022 21.729 54.1791 21.5528C55.3363 21.3765 56.3766 20.7494 57.0728 19.8085L59.1445 16.9922C59.8355 16.0476 60.1245 14.8679 59.9482 13.7109C59.7718 12.5539 59.1446 11.5138 58.2036 10.8178L44.6569 0.853883C43.9013 0.298029 42.9874 -0.00121478 42.0492 3.99371e-06Z" fill="black"/>
<path d="M5.55415 59.4771L1.84943 64.4826C1.86415 67.4103 1.87838 70.3381 1.89213 73.2658L10.3382 70.7866L14.0576 65.8076" stroke="black" stroke-width="2.5" stroke-miterlimit="10" stroke-linecap="round"/>
<path d="M10.5495 43.5287L8.81982 45.8514L25.8269 58.5121L27.5566 56.1893L10.5495 43.5287Z" fill="black"/>
<path d="M14.0078 38.8862L12.2781 41.2089L29.2852 53.8695L31.0149 51.5468L14.0078 38.8862Z" fill="black"/>
<path d="M41.1363 30.9134C42.7627 30.9134 44.0812 29.5951 44.0812 27.969C44.0812 26.3428 42.7627 25.0246 41.1363 25.0246C39.5098 25.0246 38.1913 26.3428 38.1913 27.969C38.1913 29.5951 39.5098 30.9134 41.1363 30.9134Z" fill="black"/>
<path d="M1.42829 77.5043V84.8211H0V77.5043H1.42829Z" fill="black"/>
<path d="M2.83746 84.8211V79.5977H4.21716V84.8211H2.83746ZM5.85749 84.8211V81.6559C5.86357 81.5479 5.84721 81.4398 5.80945 81.3385C5.77169 81.2371 5.71335 81.1447 5.63809 81.067C5.46654 80.9183 5.24328 80.8432 5.01671 80.858C4.90914 80.8512 4.80132 80.8667 4.69999 80.9034C4.59866 80.9401 4.50598 80.9973 4.42773 81.0714C4.35458 81.1529 4.29841 81.248 4.26251 81.3514C4.22661 81.4548 4.21169 81.5643 4.21864 81.6736L4.11262 80.5164C4.23707 80.2319 4.42553 79.98 4.66332 79.7803C4.90707 79.6011 5.2048 79.5107 5.50704 79.5241C5.74854 79.5112 5.98973 79.5546 6.21155 79.651C6.43337 79.7473 6.62974 79.8939 6.78514 80.0792C7.08651 80.4502 7.23768 80.9743 7.23866 81.6515V84.8226L5.85749 84.8211Z" fill="black"/>
<path d="M8.59479 84.8211V77.5043H9.97449V84.8211H8.59479ZM9.42526 84.459L9.23973 82.9382L11.6752 79.5977H13.1359L9.42526 84.459ZM11.7959 84.8211L10.4707 82.1241L11.6075 81.4395L13.3847 84.8255L11.7959 84.8211Z" fill="black"/>
<path d="M16.9142 84.8211V77.5043H18.2895V84.8211H16.9142ZM17.5532 81.8546V80.5297H21.8234V81.8546H17.5532ZM20.9208 84.8182V77.5013H22.3005V84.8182H20.9208Z" fill="#808080"/>
<path d="M25.2292 84.8962C24.6712 84.8962 24.2545 84.7637 23.9762 84.4987C23.6979 84.2337 23.558 83.8274 23.558 83.2812C23.558 82.761 23.7131 82.3729 24.0233 82.1167C24.3335 81.8605 24.7993 81.732 25.4207 81.731H26.7282L26.7989 82.7821H25.4251C25.2596 82.7702 25.0948 82.8137 24.9568 82.9058C24.9033 82.9518 24.8613 83.0098 24.8342 83.075C24.8071 83.1402 24.7956 83.2108 24.8007 83.2812C24.7963 83.3566 24.8125 83.4317 24.8475 83.4986C24.8825 83.5655 24.9351 83.6217 24.9995 83.661C25.1812 83.7544 25.3846 83.7971 25.5885 83.7847C25.8677 83.7991 26.1468 83.756 26.4087 83.6581C26.489 83.6289 26.5582 83.5756 26.607 83.5055C26.6558 83.4354 26.6817 83.3519 26.6811 83.2665L26.7856 84.0261C26.777 84.1217 26.7489 84.2145 26.703 84.2988C26.6572 84.3831 26.5946 84.4572 26.5191 84.5164C26.3502 84.6499 26.155 84.7462 25.9463 84.7991C25.7127 84.8632 25.4715 84.8959 25.2292 84.8962ZM26.684 84.8211V81.5101C26.6899 81.4046 26.6712 81.299 26.6293 81.2019C26.5874 81.1049 26.5234 81.0188 26.4425 80.9507C26.2437 80.8086 26.0018 80.7394 25.7578 80.7549C25.5613 80.755 25.3659 80.7863 25.1792 80.8477C24.9945 80.906 24.8219 80.9973 24.6697 81.1171L23.8142 80.2764C24.0403 80.0271 24.3239 79.8366 24.6402 79.7214C25.0035 79.5851 25.389 79.5177 25.777 79.5227C26.4641 79.5227 26.9962 79.692 27.3731 80.0306C27.7501 80.3692 27.9381 80.8472 27.9371 81.4645V84.8211H26.684Z" fill="#808080"/>
<path d="M29.2961 84.8211V79.5977H30.7686V84.8211H29.2961ZM32.2411 81.0523C32.1726 80.9842 32.0888 80.9337 31.9966 80.9051C31.8868 80.8697 31.7719 80.8528 31.6565 80.855C31.5354 80.8482 31.4143 80.8688 31.3024 80.9155C31.1904 80.9622 31.0905 81.0336 31.0101 81.1244C30.846 81.3374 30.7644 81.6025 30.7804 81.8708L30.6758 80.5135C30.8008 80.2294 30.9934 79.9802 31.2369 79.7877C31.4528 79.6185 31.7194 79.5268 31.9937 79.5271C32.1947 79.5244 32.3945 79.5593 32.5827 79.6301C32.7561 79.6964 32.913 79.8 33.0421 79.9334L32.2411 81.0523Z" fill="#808080"/>
<path d="M33.6944 84.8211V79.5977H35.0756V84.8211H33.6944ZM36.7395 84.8211V81.8061C36.7551 81.5509 36.6753 81.299 36.5156 81.0994C36.4331 81.0138 36.3329 80.9472 36.2221 80.9042C36.1112 80.8613 35.9923 80.843 35.8736 80.8506C35.7661 80.8442 35.6584 80.8598 35.5571 80.8965C35.4558 80.9332 35.3631 80.9902 35.2847 81.0641C35.2118 81.1457 35.1558 81.2409 35.1199 81.3442C35.084 81.4476 35.069 81.557 35.0756 81.6662L34.971 80.509C35.097 80.2198 35.2934 79.9668 35.5423 79.7729C35.7805 79.5994 36.0694 79.5094 36.364 79.5168C36.6125 79.5039 36.8605 79.5513 37.0867 79.6552C37.3129 79.759 37.5105 79.9161 37.6627 80.113C37.967 80.5056 38.1196 81.0665 38.1206 81.7958V84.8152L36.7395 84.8211ZM39.7845 84.8211V81.8061C39.8006 81.5516 39.7225 81.3001 39.5651 81.0994C39.3992 80.9414 39.1793 80.8524 38.9502 80.8505C38.721 80.8486 38.4997 80.9339 38.3312 81.0891C38.1788 81.2807 38.1027 81.522 38.1177 81.7663L37.8615 80.5591C38.0046 80.2512 38.2266 79.9866 38.5049 79.7921C38.7626 79.6149 39.0683 79.5208 39.3811 79.5227C39.6322 79.5097 39.8827 79.5571 40.1117 79.6608C40.3408 79.7646 40.5416 79.9216 40.6974 80.1189C41.0086 80.5115 41.1637 81.0724 41.1627 81.8016V84.8211H39.7845Z" fill="#808080"/>
<path d="M44.626 84.8962C43.9074 84.8962 43.3518 84.6999 42.9592 84.3073C42.5665 83.9147 42.3702 83.3553 42.3702 82.629V81.7781C42.3702 81.0646 42.5665 80.5115 42.9592 80.1189C43.3518 79.7263 43.9074 79.53 44.626 79.53C45.3436 79.53 45.8987 79.7263 46.2914 80.1189C46.684 80.5115 46.8803 81.0646 46.8803 81.7781V82.6437C46.8803 83.3622 46.684 83.9182 46.2914 84.3118C45.8987 84.7053 45.3436 84.9001 44.626 84.8962ZM44.626 83.5712C44.7453 83.5781 44.8647 83.5599 44.9766 83.5178C45.0884 83.4757 45.1902 83.4107 45.2753 83.3268C45.4394 83.1367 45.5224 82.8899 45.5065 82.6393V81.7737C45.5223 81.5258 45.4391 81.2818 45.2753 81.095C45.1898 81.0119 45.0879 80.9475 44.9761 80.906C44.8643 80.8644 44.7451 80.8466 44.626 80.8535C44.508 80.8467 44.39 80.8646 44.2794 80.9062C44.1688 80.9478 44.0682 81.0121 43.984 81.095C43.8224 81.2828 43.7405 81.5264 43.7558 81.7737V82.6393C43.7404 82.8893 43.8221 83.1357 43.984 83.3268C44.0673 83.4092 44.167 83.4732 44.2765 83.5148C44.3861 83.5563 44.5031 83.5746 44.6201 83.5683L44.626 83.5712Z" fill="#808080"/>
<path d="M48.1378 84.8211V79.5977H49.5175V84.8211H48.1378ZM51.1578 84.8211V81.6559C51.1641 81.548 51.148 81.44 51.1105 81.3387C51.073 81.2373 51.0149 81.1448 50.9399 81.067C50.7678 80.9182 50.5441 80.8431 50.3171 80.858C50.2095 80.8512 50.1017 80.8667 50.0003 80.9034C49.899 80.9401 49.8063 80.9973 49.7281 81.0714C49.6549 81.1528 49.5988 81.248 49.5629 81.3514C49.527 81.4548 49.512 81.5643 49.519 81.6736L49.413 80.5164C49.5374 80.2319 49.7259 79.98 49.9637 79.7803C50.2074 79.6011 50.5052 79.5107 50.8074 79.5241C51.0489 79.511 51.2902 79.5543 51.512 79.6507C51.7339 79.747 51.9302 79.8937 52.0855 80.0792C52.3878 80.4502 52.539 80.9743 52.539 81.6515V84.8226L51.1578 84.8211Z" fill="#808080"/>
<path d="M55.375 85.2481L53.1869 79.5977H54.4856L56.2423 84.1366L55.375 85.2481ZM56.7208 79.5977H58.0195L55.6901 86.0431C55.6001 86.3472 55.4082 86.6113 55.1467 86.7909C54.8521 86.9468 54.5212 87.0215 54.1882 87.0074H53.8804V85.6691H54.1882C54.3166 85.673 54.4434 85.6398 54.5533 85.5734C54.6629 85.4941 54.7432 85.3807 54.7816 85.251L56.7208 79.5977Z" fill="#808080"/>
</svg>
