<svg width="60" height="88" viewBox="0 0 60 88" fill="none" xmlns="http://www.w3.org/2000/svg">
<path d="M12.0933 41.0938L10.3636 43.4165L27.3706 56.0771L29.1004 53.7544L12.0933 41.0938Z" fill="#808080"/>
<path d="M36.8941 10.8458C37.2078 10.848 37.5124 10.9513 37.7628 11.1402L50.5586 20.552C50.7147 20.6666 50.8467 20.8109 50.9471 20.9765C51.0474 21.1422 51.114 21.326 51.1431 21.5175C51.1723 21.709 51.1633 21.9043 51.1168 22.0923C51.0703 22.2803 50.9872 22.4573 50.8722 22.6131L19.8032 64.8419C19.6518 65.0476 19.4613 65.2215 19.2427 65.3536C19.0241 65.4857 18.7816 65.5735 18.5291 65.6119C18.2765 65.6503 18.0189 65.6386 17.7709 65.5775C17.5228 65.5163 17.2893 65.407 17.0835 65.2556L4.66772 56.1279C4.51155 56.0133 4.37954 55.8691 4.27923 55.7034C4.17892 55.5377 4.11228 55.3539 4.08315 55.1624C4.05401 54.971 4.06295 54.7756 4.10944 54.5876C4.15593 54.3996 4.23907 54.2226 4.35408 54.0668L35.7043 11.4464C35.8408 11.2592 36.0199 11.1071 36.2268 11.0027C36.4336 10.8983 36.6624 10.8445 36.8941 10.8458ZM36.8941 7.90137C36.2005 7.90069 35.5164 8.06334 34.8973 8.37615C34.2783 8.68895 33.7416 9.14312 33.3307 9.70188L1.98194 52.3105C1.63804 52.7777 1.38957 53.3081 1.25073 53.8714C1.11189 54.4347 1.0854 55.0198 1.17278 55.5933C1.26015 56.1668 1.45968 56.7175 1.75996 57.2139C2.06024 57.7103 2.4554 58.1427 2.92285 58.4864L15.3387 67.614C16.3833 68.3824 17.6905 68.7044 18.9726 68.5092C20.2547 68.3141 21.4068 67.6176 22.1753 66.5732L53.2443 24.3444C53.9375 23.4011 54.2277 22.2212 54.0513 21.064C53.8749 19.9068 53.2462 18.867 52.3034 18.1729L39.5077 8.76114C38.7504 8.20225 37.8338 7.9009 36.8926 7.90137H36.8941Z" fill="black"/>
<path d="M53.5049 20.1309C52.8803 20.1324 52.2717 19.9332 51.7689 19.5627L38.2222 9.60023C37.5944 9.13524 37.176 8.44078 37.0585 7.66846C36.941 6.89614 37.1338 6.10871 37.595 5.47806L39.6667 2.6632C39.943 2.29217 40.3024 1.99112 40.7162 1.78426C41.13 1.57741 41.5865 1.47052 42.0492 1.47219C42.6739 1.46995 43.2827 1.66924 43.7852 2.04046L57.3319 12.0029C57.9601 12.4676 58.3787 13.1621 58.4962 13.9346C58.6138 14.707 58.4207 15.4945 57.9592 16.1251L55.8874 18.9414C55.6108 19.3119 55.2512 19.6125 54.8375 19.819C54.4237 20.0256 53.9674 20.1324 53.5049 20.1309Z" fill="#808080"/>
<path d="M42.0492 2.94443C42.3595 2.94325 42.662 3.04183 42.912 3.22562L56.4587 13.1895C56.7699 13.424 56.977 13.771 57.0356 14.1562C57.0942 14.5413 56.9997 14.9342 56.7724 15.2506L54.7006 18.0655C54.5617 18.2507 54.381 18.4006 54.1732 18.5029C53.9655 18.6052 53.7365 18.6571 53.5049 18.6543C53.1944 18.6556 52.8917 18.5565 52.6421 18.3717L39.0954 8.40926C38.7842 8.17475 38.5772 7.8278 38.5185 7.44261C38.4599 7.05742 38.5544 6.6646 38.7818 6.34817L40.8535 3.53331C40.9925 3.34806 41.1731 3.19819 41.3809 3.09587C41.5886 2.99355 41.8176 2.94166 42.0492 2.94443ZM42.0492 1.92525e-05C41.3553 -0.00202899 40.6707 0.159381 40.0508 0.471172C39.431 0.782962 38.8933 1.23636 38.4814 1.79464L36.4096 4.61097C35.7186 5.55559 35.4297 6.7353 35.606 7.89227C35.7823 9.04924 36.4095 10.0894 37.3505 10.7854L50.8972 20.7493C51.842 21.4402 53.0219 21.7291 54.1791 21.5528C55.3363 21.3765 56.3766 20.7494 57.0727 19.8085L59.1445 16.9922C59.8355 16.0476 60.1244 14.8679 59.9481 13.7109C59.7718 12.5539 59.1446 11.5138 58.2036 10.8178L44.6569 0.853899C43.9012 0.298045 42.9873 -0.00119952 42.0492 1.92525e-05Z" fill="black"/>
<path d="M5.55413 59.4771L1.84941 64.4826C1.86414 67.4103 1.87837 70.338 1.89211 73.2657L10.3382 70.7865L14.0576 65.8075" stroke="black" stroke-width="2.5" stroke-miterlimit="10" stroke-linecap="round"/>
<path d="M10.5495 43.5289L8.81981 45.8516L25.8269 58.5122L27.5566 56.1895L10.5495 43.5289Z" fill="black"/>
<path d="M14.0078 38.8863L12.2781 41.209L29.2852 53.8696L31.0149 51.5469L14.0078 38.8863Z" fill="black"/>
<path d="M41.1362 30.9132C42.7627 30.9132 44.0812 29.595 44.0812 27.9688C44.0812 26.3427 42.7627 25.0244 41.1362 25.0244C39.5098 25.0244 38.1913 26.3427 38.1913 27.9688C38.1913 29.595 39.5098 30.9132 41.1362 30.9132Z" fill="black"/>
<path d="M1.42829 77.5044V84.8213H0V77.5044H1.42829Z" fill="black"/>
<path d="M2.83743 84.8212V79.5978H4.21713V84.8212H2.83743ZM5.85746 84.8212V81.656C5.86354 81.548 5.84718 81.4399 5.80942 81.3386C5.77166 81.2372 5.71332 81.1448 5.63806 81.0671C5.46651 80.9184 5.24325 80.8432 5.01668 80.858C4.90911 80.8513 4.80129 80.8667 4.69996 80.9034C4.59863 80.9402 4.50595 80.9974 4.4277 81.0715C4.35455 81.1529 4.29838 81.2481 4.26248 81.3515C4.22658 81.4549 4.21166 81.5644 4.2186 81.6736L4.11259 80.5165C4.23704 80.232 4.4255 79.9801 4.66329 79.7804C4.90704 79.6012 5.20477 79.5108 5.50701 79.5242C5.74851 79.5113 5.9897 79.5547 6.21152 79.651C6.43334 79.7474 6.62971 79.894 6.78511 80.0792C7.08648 80.4502 7.23765 80.9743 7.23863 81.6515V84.8227L5.85746 84.8212Z" fill="black"/>
<path d="M8.59477 84.8213V77.5044H9.97447V84.8213H8.59477ZM9.42524 84.4591L9.23971 82.9383L11.6752 79.5979H13.1359L9.42524 84.4591ZM11.7959 84.8213L10.4707 82.1242L11.6074 81.4396L13.3847 84.8257L11.7959 84.8213Z" fill="black"/>
<path d="M16.9142 84.8213V77.5044H18.2895V84.8213H16.9142ZM17.5532 81.8548V80.5298H21.8234V81.8548H17.5532ZM20.9208 84.8183V77.5015H22.3005V84.8183H20.9208Z" fill="#808080"/>
<path d="M25.2292 84.8963C24.6712 84.8963 24.2544 84.7638 23.9761 84.4988C23.6979 84.2338 23.558 83.8274 23.558 83.2813C23.558 82.7611 23.7131 82.3729 24.0233 82.1167C24.3335 81.8606 24.7993 81.732 25.4206 81.731H26.7282L26.7989 82.7822H25.4251C25.2596 82.7702 25.0948 82.8137 24.9568 82.9058C24.9033 82.9519 24.8613 83.0098 24.8342 83.075C24.8071 83.1402 24.7956 83.2108 24.8007 83.2813C24.7963 83.3566 24.8125 83.4318 24.8475 83.4987C24.8825 83.5656 24.9351 83.6217 24.9995 83.6611C25.1812 83.7545 25.3846 83.7972 25.5885 83.7848C25.8677 83.7992 26.1468 83.7561 26.4087 83.6581C26.4889 83.629 26.5582 83.5757 26.607 83.5055C26.6558 83.4354 26.6816 83.3519 26.6811 83.2665L26.7856 84.0262C26.777 84.1218 26.7489 84.2145 26.703 84.2989C26.6572 84.3832 26.5946 84.4572 26.5191 84.5164C26.3502 84.6499 26.155 84.7463 25.9463 84.7991C25.7127 84.8632 25.4715 84.8959 25.2292 84.8963ZM26.684 84.8212V81.5102C26.6899 81.4046 26.6712 81.2991 26.6293 81.202C26.5874 81.1049 26.5234 81.0189 26.4425 80.9508C26.2436 80.8086 26.0018 80.7395 25.7578 80.755C25.5612 80.7551 25.3659 80.7864 25.1792 80.8477C24.9945 80.9061 24.8219 80.9974 24.6697 81.1171L23.8142 80.2765C24.0403 80.0271 24.3239 79.8366 24.6402 79.7215C25.0035 79.5852 25.389 79.5178 25.777 79.5227C26.4641 79.5227 26.9962 79.692 27.3731 80.0306C27.7501 80.3692 27.9381 80.8472 27.9371 81.4646V84.8212H26.684Z" fill="#808080"/>
<path d="M29.2962 84.8211V79.5977H30.7686V84.8211H29.2962ZM32.2411 81.0522C32.1727 80.9842 32.0888 80.9337 31.9967 80.905C31.8868 80.8697 31.7719 80.8528 31.6565 80.8549C31.5354 80.8481 31.4143 80.8688 31.3024 80.9154C31.1904 80.9621 31.0905 81.0335 31.0101 81.1243C30.846 81.3373 30.7644 81.6024 30.7804 81.8707L30.6759 80.5134C30.8008 80.2293 30.9934 79.9801 31.2369 79.7876C31.4529 79.6184 31.7194 79.5267 31.9937 79.527C32.1948 79.5243 32.3945 79.5593 32.5827 79.6301C32.7562 79.6964 32.913 79.7999 33.0421 79.9333L32.2411 81.0522Z" fill="#808080"/>
<path d="M33.6944 84.8211V79.5977H35.0756V84.8211H33.6944ZM36.7395 84.8211V81.806C36.7551 81.5509 36.6754 81.299 36.5157 81.0993C36.4332 81.0138 36.333 80.9472 36.2221 80.9042C36.1112 80.8612 35.9923 80.8429 35.8737 80.8505C35.7661 80.8441 35.6584 80.8598 35.5571 80.8965C35.4559 80.9332 35.3631 80.9902 35.2847 81.064C35.2118 81.1456 35.1558 81.2408 35.1199 81.3442C35.0841 81.4475 35.069 81.5569 35.0756 81.6661L34.9711 80.509C35.097 80.2198 35.2934 79.9667 35.5424 79.7729C35.7806 79.5994 36.0694 79.5093 36.364 79.5167C36.6126 79.5038 36.8605 79.5513 37.0867 79.6551C37.3129 79.759 37.5105 79.9161 37.6627 80.113C37.967 80.5056 38.1197 81.0665 38.1207 81.7957V84.8152L36.7395 84.8211ZM39.7845 84.8211V81.806C39.8006 81.5515 39.7225 81.3 39.5651 81.0993C39.3992 80.9413 39.1794 80.8524 38.9502 80.8505C38.7211 80.8485 38.4998 80.9338 38.3312 81.089C38.1788 81.2807 38.1028 81.5219 38.1177 81.7663L37.8615 80.5591C38.0047 80.2512 38.2266 79.9866 38.505 79.792C38.7626 79.6148 39.0684 79.5208 39.3811 79.5226C39.6322 79.5097 39.8827 79.557 40.1118 79.6608C40.3408 79.7645 40.5416 79.9216 40.6975 80.1189C41.0087 80.5115 41.1638 81.0724 41.1628 81.8016V84.8211H39.7845Z" fill="#808080"/>
<path d="M44.626 84.8965C43.9074 84.8965 43.3518 84.7002 42.9592 84.3076C42.5665 83.915 42.3702 83.3556 42.3702 82.6293V81.7783C42.3702 81.0648 42.5665 80.5117 42.9592 80.1192C43.3518 79.7266 43.9074 79.5303 44.626 79.5303C45.3436 79.5303 45.8987 79.7266 46.2914 80.1192C46.684 80.5117 46.8803 81.0648 46.8803 81.7783V82.644C46.8803 83.3624 46.684 83.9184 46.2914 84.312C45.8987 84.7056 45.3436 84.9004 44.626 84.8965ZM44.626 83.5715C44.7453 83.5783 44.8647 83.5601 44.9766 83.5181C45.0884 83.476 45.1902 83.4109 45.2753 83.3271C45.4394 83.137 45.5224 82.8902 45.5065 82.6396V81.7739C45.5223 81.526 45.4391 81.282 45.2753 81.0952C45.1898 81.0122 45.0879 80.9478 44.9761 80.9062C44.8643 80.8647 44.7451 80.8468 44.626 80.8538C44.508 80.8469 44.39 80.8649 44.2794 80.9065C44.1688 80.9481 44.0682 81.0124 43.984 81.0952C43.8224 81.2831 43.7405 81.5266 43.7558 81.7739V82.6396C43.7404 82.8896 43.8221 83.1359 43.984 83.3271C44.0673 83.4094 44.167 83.4734 44.2765 83.515C44.3861 83.5566 44.5031 83.5748 44.6201 83.5685L44.626 83.5715Z" fill="#808080"/>
<path d="M48.1378 84.8213V79.5979H49.5175V84.8213H48.1378ZM51.1578 84.8213V81.656C51.1641 81.5482 51.148 81.4401 51.1105 81.3388C51.073 81.2375 51.0149 81.145 50.9399 81.0672C50.7678 80.9184 50.5441 80.8433 50.3171 80.8581C50.2095 80.8513 50.1017 80.8668 50.0003 80.9035C49.899 80.9403 49.8063 80.9975 49.7281 81.0716C49.6549 81.153 49.5988 81.2482 49.5629 81.3516C49.527 81.455 49.512 81.5645 49.519 81.6737L49.413 80.5165C49.5374 80.2321 49.7259 79.9802 49.9637 79.7804C50.2074 79.6013 50.5052 79.5109 50.8074 79.5243C51.0489 79.5111 51.2902 79.5544 51.512 79.6508C51.7339 79.7471 51.9302 79.8938 52.0855 80.0793C52.3878 80.4503 52.539 80.9744 52.539 81.6516V84.8227L51.1578 84.8213Z" fill="#808080"/>
<path d="M55.375 85.248L53.1869 79.5977H54.4856L56.2423 84.1365L55.375 85.248ZM56.7208 79.5977H58.0195L55.6901 86.043C55.6001 86.3472 55.4082 86.6112 55.1467 86.7909C54.8521 86.9467 54.5212 87.0214 54.1882 87.0073H53.8804V85.669H54.1882C54.3166 85.673 54.4434 85.6397 54.5533 85.5733C54.6629 85.494 54.7432 85.3807 54.7816 85.2509L56.7208 79.5977Z" fill="#808080"/>
</svg>
