<svg width="56" height="56" viewBox="0 0 56 56" fill="none" xmlns="http://www.w3.org/2000/svg">
<path d="M26.8333 32.6667C36.4932 32.6667 44.3333 36.33 44.3333 40.8333V46.6667H9.33325V40.8333C9.33325 36.33 17.1733 32.6667 26.8333 32.6667ZM41.9999 40.8333C41.9999 37.6133 35.2099 35 26.8333 35C18.4566 35 11.6666 37.6133 11.6666 40.8333V44.3333H41.9999V40.8333ZM26.8333 11.6667C28.9992 11.6667 31.0764 12.5271 32.608 14.0586C34.1395 15.5902 34.9999 17.6674 34.9999 19.8333C34.9999 21.9993 34.1395 24.0765 32.608 25.608C31.0764 27.1396 28.9992 28 26.8333 28C24.6673 28 22.5901 27.1396 21.0585 25.608C19.527 24.0765 18.6666 21.9993 18.6666 19.8333C18.6666 17.6674 19.527 15.5902 21.0585 14.0586C22.5901 12.5271 24.6673 11.6667 26.8333 11.6667ZM26.8333 14C25.2862 14 23.8024 14.6146 22.7085 15.7085C21.6145 16.8025 20.9999 18.2862 20.9999 19.8333C20.9999 21.3804 21.6145 22.8642 22.7085 23.9581C23.8024 25.0521 25.2862 25.6667 26.8333 25.6667C28.3803 25.6667 29.8641 25.0521 30.958 23.9581C32.052 22.8642 32.6666 21.3804 32.6666 19.8333C32.6666 18.2862 32.052 16.8025 30.958 15.7085C29.8641 14.6146 28.3803 14 26.8333 14Z" fill="black"/>
</svg>
