<svg width="56" height="56" viewBox="0 0 56 56" fill="none" xmlns="http://www.w3.org/2000/svg">
<path d="M26.833 32.6667C36.493 32.6667 44.333 36.3301 44.333 40.8334V46.6667H9.33301V40.8334C9.33301 36.3301 17.173 32.6667 26.833 32.6667ZM41.9997 40.8334C41.9997 37.6134 35.2097 35.0001 26.833 35.0001C18.4563 35.0001 11.6663 37.6134 11.6663 40.8334V44.3334H41.9997V40.8334ZM26.833 11.6667C28.9989 11.6667 31.0762 12.5272 32.6077 14.0587C34.1393 15.5903 34.9997 17.6675 34.9997 19.8334C34.9997 21.9993 34.1393 24.0766 32.6077 25.6081C31.0762 27.1397 28.9989 28.0001 26.833 28.0001C24.6671 28.0001 22.5898 27.1397 21.0583 25.6081C19.5268 24.0766 18.6663 21.9993 18.6663 19.8334C18.6663 17.6675 19.5268 15.5903 21.0583 14.0587C22.5898 12.5272 24.6671 11.6667 26.833 11.6667ZM26.833 14.0001C25.2859 14.0001 23.8022 14.6147 22.7082 15.7086C21.6143 16.8026 20.9997 18.2863 20.9997 19.8334C20.9997 21.3805 21.6143 22.8642 22.7082 23.9582C23.8022 25.0522 25.2859 25.6667 26.833 25.6667C28.3801 25.6667 29.8638 25.0522 30.9578 23.9582C32.0518 22.8642 32.6663 21.3805 32.6663 19.8334C32.6663 18.2863 32.0518 16.8026 30.9578 15.7086C29.8638 14.6147 28.3801 14.0001 26.833 14.0001Z" fill="black"/>
</svg>
