<svg width="56" height="56" viewBox="0 0 56 56" fill="none" xmlns="http://www.w3.org/2000/svg">
<path d="M26.8335 32.6667C36.4935 32.6667 44.3335 36.3301 44.3335 40.8334V46.6667H9.3335V40.8334C9.3335 36.3301 17.1735 32.6667 26.8335 32.6667ZM42.0002 40.8334C42.0002 37.6134 35.2102 35.0001 26.8335 35.0001C18.4568 35.0001 11.6668 37.6134 11.6668 40.8334V44.3334H42.0002V40.8334ZM26.8335 11.6667C28.9994 11.6667 31.0767 12.5272 32.6082 14.0587C34.1397 15.5903 35.0002 17.6675 35.0002 19.8334C35.0002 21.9993 34.1397 24.0766 32.6082 25.6081C31.0767 27.1397 28.9994 28.0001 26.8335 28.0001C24.6676 28.0001 22.5903 27.1397 21.0588 25.6081C19.5272 24.0766 18.6668 21.9993 18.6668 19.8334C18.6668 17.6675 19.5272 15.5903 21.0588 14.0587C22.5903 12.5272 24.6676 11.6667 26.8335 11.6667ZM26.8335 14.0001C25.2864 14.0001 23.8027 14.6147 22.7087 15.7086C21.6147 16.8026 21.0002 18.2863 21.0002 19.8334C21.0002 21.3805 21.6147 22.8642 22.7087 23.9582C23.8027 25.0522 25.2864 25.6667 26.8335 25.6667C28.3806 25.6667 29.8643 25.0522 30.9583 23.9582C32.0522 22.8642 32.6668 21.3805 32.6668 19.8334C32.6668 18.2863 32.0522 16.8026 30.9583 15.7086C29.8643 14.6147 28.3806 14.0001 26.8335 14.0001Z" fill="black"/>
</svg>
