<svg width="56" height="56" viewBox="0 0 56 56" fill="none" xmlns="http://www.w3.org/2000/svg">
<path d="M26.8333 32.6667C36.4932 32.6667 44.3333 36.3301 44.3333 40.8334V46.6667H9.33325V40.8334C9.33325 36.3301 17.1733 32.6667 26.8333 32.6667ZM41.9999 40.8334C41.9999 37.6134 35.2099 35.0001 26.8333 35.0001C18.4566 35.0001 11.6666 37.6134 11.6666 40.8334V44.3334H41.9999V40.8334ZM26.8333 11.6667C28.9992 11.6667 31.0764 12.5272 32.608 14.0587C34.1395 15.5903 34.9999 17.6675 34.9999 19.8334C34.9999 21.9993 34.1395 24.0766 32.608 25.6081C31.0764 27.1397 28.9992 28.0001 26.8333 28.0001C24.6673 28.0001 22.5901 27.1397 21.0585 25.6081C19.527 24.0766 18.6666 21.9993 18.6666 19.8334C18.6666 17.6675 19.527 15.5903 21.0585 14.0587C22.5901 12.5272 24.6673 11.6667 26.8333 11.6667ZM26.8333 14.0001C25.2862 14.0001 23.8024 14.6147 22.7085 15.7086C21.6145 16.8026 20.9999 18.2863 20.9999 19.8334C20.9999 21.3805 21.6145 22.8642 22.7085 23.9582C23.8024 25.0522 25.2862 25.6667 26.8333 25.6667C28.3803 25.6667 29.8641 25.0522 30.958 23.9582C32.052 22.8642 32.6666 21.3805 32.6666 19.8334C32.6666 18.2863 32.052 16.8026 30.958 15.7086C29.8641 14.6147 28.3803 14.0001 26.8333 14.0001Z" fill="black"/>
</svg>
