<svg width="56" height="56" viewBox="0 0 56 56" fill="none" xmlns="http://www.w3.org/2000/svg">
<path d="M26.8334 32.6667C36.4934 32.6667 44.3334 36.33 44.3334 40.8333V46.6667H9.33337V40.8333C9.33337 36.33 17.1734 32.6667 26.8334 32.6667ZM42 40.8333C42 37.6133 35.21 35 26.8334 35C18.4567 35 11.6667 37.6133 11.6667 40.8333V44.3333H42V40.8333ZM26.8334 11.6667C28.9993 11.6667 31.0765 12.5271 32.6081 14.0586C34.1396 15.5902 35 17.6674 35 19.8333C35 21.9993 34.1396 24.0765 32.6081 25.608C31.0765 27.1396 28.9993 28 26.8334 28C24.6674 28 22.5902 27.1396 21.0587 25.608C19.5271 24.0765 18.6667 21.9993 18.6667 19.8333C18.6667 17.6674 19.5271 15.5902 21.0587 14.0586C22.5902 12.5271 24.6674 11.6667 26.8334 11.6667ZM26.8334 14C25.2863 14 23.8025 14.6146 22.7086 15.7085C21.6146 16.8025 21 18.2862 21 19.8333C21 21.3804 21.6146 22.8642 22.7086 23.9581C23.8025 25.0521 25.2863 25.6667 26.8334 25.6667C28.3805 25.6667 29.8642 25.0521 30.9582 23.9581C32.0521 22.8642 32.6667 21.3804 32.6667 19.8333C32.6667 18.2862 32.0521 16.8025 30.9582 15.7085C29.8642 14.6146 28.3805 14 26.8334 14Z" fill="black"/>
</svg>
