<svg width="56" height="56" viewBox="0 0 56 56" fill="none" xmlns="http://www.w3.org/2000/svg">
<path d="M26.8335 32.6667C36.4935 32.6667 44.3335 36.33 44.3335 40.8333V46.6667H9.3335V40.8333C9.3335 36.33 17.1735 32.6667 26.8335 32.6667ZM42.0002 40.8333C42.0002 37.6133 35.2102 35 26.8335 35C18.4568 35 11.6668 37.6133 11.6668 40.8333V44.3333H42.0002V40.8333ZM26.8335 11.6667C28.9994 11.6667 31.0767 12.5271 32.6082 14.0586C34.1397 15.5902 35.0002 17.6674 35.0002 19.8333C35.0002 21.9993 34.1397 24.0765 32.6082 25.608C31.0767 27.1396 28.9994 28 26.8335 28C24.6676 28 22.5903 27.1396 21.0588 25.608C19.5272 24.0765 18.6668 21.9993 18.6668 19.8333C18.6668 17.6674 19.5272 15.5902 21.0588 14.0586C22.5903 12.5271 24.6676 11.6667 26.8335 11.6667ZM26.8335 14C25.2864 14 23.8027 14.6146 22.7087 15.7085C21.6147 16.8025 21.0002 18.2862 21.0002 19.8333C21.0002 21.3804 21.6147 22.8642 22.7087 23.9581C23.8027 25.0521 25.2864 25.6667 26.8335 25.6667C28.3806 25.6667 29.8643 25.0521 30.9583 23.9581C32.0522 22.8642 32.6668 21.3804 32.6668 19.8333C32.6668 18.2862 32.0522 16.8025 30.9583 15.7085C29.8643 14.6146 28.3806 14 26.8335 14Z" fill="black"/>
</svg>
