<svg width="56" height="56" viewBox="0 0 56 56" fill="none" xmlns="http://www.w3.org/2000/svg">
<path d="M26.833 32.6667C36.493 32.6667 44.333 36.33 44.333 40.8333V46.6667H9.33301V40.8333C9.33301 36.33 17.173 32.6667 26.833 32.6667ZM41.9997 40.8333C41.9997 37.6133 35.2097 35 26.833 35C18.4563 35 11.6663 37.6133 11.6663 40.8333V44.3333H41.9997V40.8333ZM26.833 11.6667C28.9989 11.6667 31.0762 12.5271 32.6077 14.0586C34.1393 15.5902 34.9997 17.6674 34.9997 19.8333C34.9997 21.9993 34.1393 24.0765 32.6077 25.608C31.0762 27.1396 28.9989 28 26.833 28C24.6671 28 22.5898 27.1396 21.0583 25.608C19.5268 24.0765 18.6663 21.9993 18.6663 19.8333C18.6663 17.6674 19.5268 15.5902 21.0583 14.0586C22.5898 12.5271 24.6671 11.6667 26.833 11.6667ZM26.833 14C25.2859 14 23.8022 14.6146 22.7082 15.7085C21.6143 16.8025 20.9997 18.2862 20.9997 19.8333C20.9997 21.3804 21.6143 22.8642 22.7082 23.9581C23.8022 25.0521 25.2859 25.6667 26.833 25.6667C28.3801 25.6667 29.8638 25.0521 30.9578 23.9581C32.0518 22.8642 32.6663 21.3804 32.6663 19.8333C32.6663 18.2862 32.0518 16.8025 30.9578 15.7085C29.8638 14.6146 28.3801 14 26.833 14Z" fill="black"/>
</svg>
