<svg width="90" height="131" viewBox="0 0 90 131" fill="none" xmlns="http://www.w3.org/2000/svg">
<g clip-path="url(#clip0_12_187)">
<path d="M18.1399 61.8769L15.5453 65.3743L41.056 84.4379L43.6505 80.9405L18.1399 61.8769Z" fill="#808080"/>
<path d="M55.3411 16.3309C55.8117 16.3342 56.2686 16.4897 56.6442 16.7742L75.8378 30.946C76.0721 31.1186 76.2701 31.3358 76.4206 31.5852C76.571 31.8347 76.671 32.1115 76.7147 32.3998C76.7584 32.6881 76.745 32.9822 76.6752 33.2653C76.6055 33.5484 76.4808 33.8149 76.3083 34.0495L29.7048 97.6353C29.4777 97.9451 29.192 98.2069 28.8641 98.4059C28.5362 98.6048 28.1724 98.737 27.7936 98.7948C27.4148 98.8527 27.0283 98.8351 26.6563 98.743C26.2842 98.6509 25.9339 98.4862 25.6253 98.2583L7.00156 84.5143C6.76732 84.3418 6.56929 84.1245 6.41882 83.8751C6.26836 83.6256 6.16841 83.3488 6.12471 83.0605C6.08101 82.7722 6.09441 82.4781 6.16415 82.195C6.23388 81.9119 6.35859 81.6454 6.53111 81.4108L53.5565 17.2353C53.7613 16.9534 54.0299 16.7244 54.3401 16.5671C54.6504 16.4099 54.9935 16.3289 55.3411 16.3309ZM55.3411 11.8973C54.3007 11.8963 53.2746 12.1412 52.346 12.6122C51.4174 13.0832 50.6124 13.7671 49.9961 14.6085L2.9729 78.7662C2.45704 79.4698 2.08434 80.2684 1.87608 81.1166C1.66782 81.9647 1.62809 82.8458 1.75915 83.7093C1.89022 84.5729 2.18951 85.4021 2.63993 86.1495C3.09035 86.897 3.68308 87.548 4.38425 88.0656L23.008 101.81C24.575 102.967 26.5357 103.451 28.4589 103.157C30.3821 102.864 32.1101 101.815 33.263 100.242L79.8665 36.6564C80.9062 35.236 81.3416 33.4594 81.077 31.7169C80.8123 29.9745 79.8693 28.4088 78.4551 27.3637L59.2616 13.1919C58.1256 12.3504 56.7508 11.8966 55.3389 11.8973H55.3411Z" fill="black"/>
<path d="M80.2575 30.3122C79.3205 30.3144 78.4076 30.0145 77.6534 29.4565L57.3334 14.4556C56.3916 13.7554 55.7641 12.7098 55.5878 11.5468C55.4115 10.3839 55.7008 9.19825 56.3925 8.24866L59.5001 4.01019C59.9145 3.45151 60.4537 2.9982 61.0743 2.68673C61.695 2.37526 62.3799 2.21431 63.0738 2.21683C64.0109 2.21346 64.9241 2.51353 65.6778 3.0725L85.9979 18.0734C86.9401 18.7732 87.568 19.8189 87.7443 20.982C87.9207 22.1451 87.631 23.3309 86.9388 24.2803L83.8311 28.521C83.4162 29.0789 82.8768 29.5315 82.2562 29.8425C81.6356 30.1536 80.9511 30.3144 80.2575 30.3122Z" fill="#808080"/>
<path d="M63.0738 4.43357C63.5393 4.4318 63.993 4.58023 64.3681 4.85697L84.6881 19.8601C85.1549 20.2132 85.4655 20.7356 85.5534 21.3156C85.6413 21.8956 85.4996 22.4871 85.1585 22.9635L82.0509 27.202C81.8425 27.4809 81.5715 27.7066 81.2599 27.8607C80.9482 28.0148 80.6048 28.0929 80.2574 28.0887C79.7916 28.0906 79.3376 27.9413 78.9631 27.6631L58.6431 12.6622C58.1763 12.3091 57.8658 11.7867 57.7778 11.2067C57.6899 10.6267 57.8316 10.0352 58.1727 9.55874L61.2803 5.32028C61.4887 5.04134 61.7597 4.81567 62.0714 4.6616C62.383 4.50753 62.7264 4.4294 63.0738 4.43357ZM63.0738 2.89894e-05C62.033 -0.00305514 61.0061 0.239988 60.0763 0.709466C59.1465 1.17894 58.34 1.86165 57.7221 2.70227L54.6145 6.94295C53.5779 8.36532 53.1446 10.1417 53.409 11.8838C53.6735 13.6259 54.6143 15.1921 56.0258 16.2401L76.3458 31.2432C77.763 32.2835 79.5329 32.7185 81.2687 32.453C83.0044 32.1876 84.5649 31.2434 85.6091 29.8267L88.7168 25.586C89.7533 24.1636 90.1867 22.3873 89.9222 20.6452C89.6577 18.9031 88.7169 17.3369 87.3054 16.2889L66.9854 1.28576C65.8519 0.44878 64.481 -0.00180618 63.0738 2.89894e-05Z" fill="black"/>
<path d="M8.33119 89.5575L2.77411 97.0945C2.7962 101.503 2.81755 105.911 2.83816 110.32L15.5072 106.587L21.0864 99.0896" stroke="black" stroke-width="3.5" stroke-miterlimit="10" stroke-linecap="round"/>
<path d="M15.8243 65.5432L13.2297 69.0406L38.7404 88.1043L41.3349 84.6069L15.8243 65.5432Z" fill="black"/>
<path d="M21.0117 58.5528L18.4172 62.0502L43.9278 81.1139L46.5224 77.6164L21.0117 58.5528Z" fill="black"/>
<path d="M61.7044 46.5477C64.144 46.5477 66.1218 44.5628 66.1218 42.1142C66.1218 39.6656 64.144 37.6807 61.7044 37.6807C59.2647 37.6807 57.287 39.6656 57.287 42.1142C57.287 44.5628 59.2647 46.5477 61.7044 46.5477Z" fill="black"/>
<path d="M2.14244 116.702V127.719H0V116.702H2.14244Z" fill="black"/>
<path d="M4.25616 127.719V119.854H6.32571V127.719H4.25616ZM8.7862 127.719V122.953C8.79532 122.791 8.77079 122.628 8.71415 122.475C8.65751 122.323 8.56999 122.183 8.45711 122.066C8.19978 121.842 7.86489 121.729 7.52504 121.752C7.36368 121.741 7.20196 121.765 7.04996 121.82C6.89796 121.875 6.75893 121.961 6.64156 122.073C6.53184 122.196 6.44759 122.339 6.39373 122.495C6.33988 122.65 6.31751 122.815 6.32792 122.98L6.1689 121.237C6.35557 120.809 6.63826 120.43 6.99495 120.129C7.36057 119.859 7.80717 119.723 8.26053 119.743C8.62278 119.724 8.98456 119.789 9.31729 119.934C9.65002 120.079 9.94458 120.3 10.1777 120.579C10.6297 121.138 10.8565 121.927 10.858 122.946V127.721L8.7862 127.719Z" fill="black"/>
<path d="M12.8922 127.719V116.702H14.9617V127.719H12.8922ZM14.1379 127.174L13.8596 124.884L17.5127 119.854H19.7038L14.1379 127.174ZM17.6939 127.719L15.706 123.658L17.4111 122.627L20.077 127.726L17.6939 127.719Z" fill="black"/>
<path d="M25.3713 127.719V116.702H27.4342V127.719H25.3713ZM26.3299 123.252V121.257H32.7351V123.252H26.3299ZM31.3811 127.715V116.697H33.4507V127.715H31.3811Z" fill="#808080"/>
<path d="M37.8438 127.832C37.0068 127.832 36.3817 127.633 35.9642 127.234C35.5468 126.835 35.337 126.223 35.337 125.4C35.337 124.617 35.5696 124.033 36.0349 123.647C36.5002 123.261 37.1989 123.068 38.131 123.066H40.0923L40.1983 124.649H38.1376C37.8894 124.631 37.6422 124.696 37.4352 124.835C37.3549 124.904 37.2919 124.992 37.2513 125.09C37.2106 125.188 37.1934 125.294 37.2011 125.4C37.1945 125.514 37.2188 125.627 37.2713 125.728C37.3238 125.829 37.4026 125.913 37.4993 125.972C37.7718 126.113 38.077 126.177 38.3828 126.159C38.8015 126.18 39.2203 126.115 39.613 125.968C39.7334 125.924 39.8374 125.844 39.9105 125.738C39.9837 125.633 40.0225 125.507 40.0216 125.378L40.1784 126.522C40.1655 126.666 40.1233 126.806 40.0546 126.933C39.9858 127.06 39.8919 127.171 39.7787 127.26C39.5253 127.461 39.2325 127.606 38.9195 127.686C38.569 127.782 38.2073 127.832 37.8438 127.832ZM40.026 127.719V122.734C40.0349 122.575 40.0068 122.416 39.9439 122.27C39.8811 122.123 39.7852 121.994 39.6638 121.891C39.3655 121.677 39.0027 121.573 38.6368 121.596C38.3419 121.597 38.0489 121.644 37.7687 121.736C37.4917 121.824 37.2329 121.961 37.0045 122.142L35.7213 120.876C36.0605 120.5 36.4858 120.214 36.9604 120.04C37.5053 119.835 38.0835 119.734 38.6655 119.741C39.6962 119.741 40.4943 119.996 41.0597 120.506C41.6251 121.016 41.9071 121.735 41.9056 122.665V127.719H40.026Z" fill="#808080"/>
<path d="M43.9442 127.719V119.854H46.1529V127.719H43.9442ZM48.3616 122.044C48.259 121.942 48.1332 121.866 47.995 121.823C47.8302 121.769 47.6578 121.744 47.4848 121.747C47.3031 121.737 47.1215 121.768 46.9535 121.838C46.7856 121.909 46.6357 122.016 46.5151 122.153C46.269 122.474 46.1466 122.873 46.1706 123.277L46.0138 121.233C46.2012 120.805 46.4901 120.43 46.8553 120.14C47.1793 119.885 47.579 119.747 47.9905 119.748C48.2921 119.744 48.5918 119.796 48.874 119.903C49.1342 120.003 49.3694 120.159 49.5631 120.359L48.3616 122.044Z" fill="#808080"/>
<path d="M50.5416 127.719V119.854H52.6134V127.719H50.5416ZM55.1092 127.719V123.179C55.1327 122.795 55.013 122.416 54.7735 122.115C54.6497 121.986 54.4994 121.886 54.3331 121.821C54.1668 121.757 53.9885 121.729 53.8105 121.741C53.6492 121.731 53.4876 121.754 53.3357 121.81C53.1838 121.865 53.0447 121.951 52.927 122.062C52.8177 122.185 52.7337 122.328 52.6799 122.484C52.6261 122.639 52.6035 122.804 52.6134 122.969L52.4566 121.226C52.6455 120.791 52.9401 120.41 53.3135 120.118C53.6708 119.857 54.1041 119.721 54.546 119.732C54.9188 119.713 55.2908 119.784 55.6301 119.941C55.9693 120.097 56.2658 120.333 56.4941 120.63C56.9505 121.221 57.1795 122.066 57.181 123.164V127.71L55.1092 127.719ZM59.6768 127.719V123.179C59.7009 122.796 59.5837 122.417 59.3477 122.115C59.0988 121.877 58.769 121.743 58.4253 121.74C58.0816 121.738 57.7497 121.866 57.4968 122.1C57.2682 122.388 57.1541 122.751 57.1766 123.119L56.7922 121.302C57.007 120.838 57.34 120.44 57.7574 120.147C58.1439 119.88 58.6025 119.738 59.0716 119.741C59.4483 119.721 59.8241 119.793 60.1676 119.949C60.5112 120.105 60.8124 120.342 61.0462 120.639C61.513 121.23 61.7456 122.075 61.7441 123.173V127.719H59.6768Z" fill="#808080"/>
<path d="M66.939 127.832C65.8612 127.832 65.0278 127.537 64.4388 126.945C63.8498 126.354 63.5553 125.512 63.5553 124.418V123.137C63.5553 122.063 63.8498 121.23 64.4388 120.639C65.0278 120.048 65.8612 119.752 66.939 119.752C68.0154 119.752 68.8481 120.048 69.4371 120.639C70.026 121.23 70.3205 122.063 70.3205 123.137V124.441C70.3205 125.522 70.026 126.36 69.4371 126.952C68.8481 127.545 68.0154 127.838 66.939 127.832ZM66.939 125.837C67.118 125.847 67.2971 125.82 67.4649 125.757C67.6326 125.693 67.7853 125.595 67.9131 125.469C68.1591 125.183 68.2836 124.811 68.2598 124.434V123.13C68.2834 122.757 68.1587 122.39 67.9131 122.109C67.7847 121.983 67.6318 121.886 67.4641 121.824C67.2964 121.761 67.1176 121.734 66.939 121.745C66.7621 121.735 66.585 121.762 66.4191 121.824C66.2533 121.887 66.1023 121.984 65.976 122.109C65.7336 122.391 65.6108 122.758 65.6337 123.13V124.434C65.6106 124.81 65.7332 125.181 65.976 125.469C66.1011 125.593 66.2505 125.689 66.4148 125.752C66.5791 125.815 66.7547 125.842 66.9302 125.833L66.939 125.837Z" fill="#808080"/>
<path d="M72.2067 127.719V119.854H74.2763V127.719H72.2067ZM76.7368 127.719V122.953C76.7462 122.791 76.722 122.628 76.6657 122.475C76.6095 122.323 76.5224 122.184 76.4099 122.066C76.1518 121.842 75.8161 121.729 75.4756 121.752C75.3142 121.741 75.1525 121.765 75.0005 121.82C74.8485 121.875 74.7095 121.961 74.5921 122.073C74.4824 122.196 74.3982 122.339 74.3443 122.495C74.2904 122.65 74.2681 122.815 74.2785 122.98L74.1195 121.237C74.3061 120.809 74.5888 120.43 74.9455 120.129C75.3111 119.859 75.7577 119.723 76.2111 119.743C76.5734 119.723 76.9353 119.789 77.2681 119.934C77.6009 120.079 77.8954 120.3 78.1282 120.579C78.5818 121.138 78.8085 121.927 78.8085 122.946V127.721L76.7368 127.719Z" fill="#808080"/>
<path d="M83.0625 128.362L79.7803 119.854H81.7284L84.3634 126.688L83.0625 128.362ZM85.0812 119.854H87.0293L83.5351 129.559C83.4001 130.017 83.1124 130.415 82.7201 130.685C82.2781 130.92 81.7818 131.032 81.2822 131.011H80.8206V128.996H81.2822C81.4748 129.002 81.6651 128.952 81.83 128.852C81.9944 128.733 82.1148 128.562 82.1724 128.367L85.0812 119.854Z" fill="#808080"/>
</g>
<defs>
<clipPath id="clip0_12_187">
<rect width="90" height="131" fill="white"/>
</clipPath>
</defs>
</svg>
